<svg width="20" height="16" viewBox="0 0 20 16" fill="none" xmlns="http://www.w3.org/2000/svg">
<path d="M19.5307 4.875H17.192L16.542 3.25C15.8741 1.5793 14.2799 0.5 12.4803 0.5H7.51939C5.72017 0.5 4.12564 1.5793 3.45728 3.25L2.80728 4.875H0.468999C0.16392 4.875 -0.0599077 5.16172 0.0143111 5.45742L0.248686 6.39492C0.300639 6.60352 0.488139 6.75 0.703374 6.75H1.48736C0.962749 7.2082 0.624858 7.87422 0.624858 8.625V10.5C0.624858 11.1297 0.865483 11.698 1.24986 12.1379V14.25C1.24986 14.9402 1.80962 15.5 2.49986 15.5H3.74986C4.44009 15.5 4.99986 14.9402 4.99986 14.25V13H14.9999V14.25C14.9999 14.9402 15.5596 15.5 16.2499 15.5H17.4999C18.1901 15.5 18.7499 14.9402 18.7499 14.25V12.1379C19.1342 11.6984 19.3749 11.1301 19.3749 10.5V8.625C19.3749 7.87422 19.037 7.2082 18.5127 6.75H19.2967C19.512 6.75 19.6995 6.60352 19.7514 6.39492L19.9858 5.45742C20.0596 5.16172 19.8358 4.875 19.5307 4.875ZM5.77837 4.17852C6.06314 3.4668 6.75259 3 7.51939 3H12.4803C13.2471 3 13.9366 3.4668 14.2213 4.17852L14.9999 6.125H4.99986L5.77837 4.17852ZM3.74986 10.4922C2.99986 10.4922 2.49986 9.99375 2.49986 9.24609C2.49986 8.49844 2.99986 8 3.74986 8C4.49986 8 5.62486 9.12148 5.62486 9.86914C5.62486 10.6168 4.49986 10.4922 3.74986 10.4922ZM16.2499 10.4922C15.4999 10.4922 14.3749 10.6168 14.3749 9.86914C14.3749 9.12148 15.4999 8 16.2499 8C16.9999 8 17.4999 8.49844 17.4999 9.24609C17.4999 9.99375 16.9999 10.4922 16.2499 10.4922Z" fill="white"/>
</svg>
