<svg width="14" height="16" viewBox="0 0 14 16" fill="none" xmlns="http://www.w3.org/2000/svg">
<path fill-rule="evenodd" clip-rule="evenodd" d="M3.25 1.95833C3.25 1.77583 5.13167 0.5 7 0.5C8.86833 0.5 10.75 1.77625 10.75 1.95833C10.75 2.60833 10.6808 2.99333 10.6225 3.20292C10.5837 3.34042 10.455 3.41667 10.3121 3.41667H3.68792C3.545 3.41667 3.41625 3.34042 3.3775 3.20292C3.31917 2.99333 3.25 2.60833 3.25 1.95833ZM6.375 1.75C6.26449 1.75 6.15851 1.7939 6.08037 1.87204C6.00223 1.95018 5.95833 2.05616 5.95833 2.16667C5.95833 2.27717 6.00223 2.38315 6.08037 2.46129C6.15851 2.53943 6.26449 2.58333 6.375 2.58333H7.625C7.73551 2.58333 7.84149 2.53943 7.91963 2.46129C7.99777 2.38315 8.04167 2.27717 8.04167 2.16667C8.04167 2.05616 7.99777 1.95018 7.91963 1.87204C7.84149 1.7939 7.73551 1.75 7.625 1.75H6.375Z" fill="white"/>
<path fill-rule="evenodd" clip-rule="evenodd" d="M3.68314 6.0075C2.29564 5.57833 2.64564 4.81167 3.17481 4.25H10.9423C11.3656 4.79083 11.5927 5.52042 10.3131 5.95708C10.3654 6.42126 10.3196 6.89124 10.1786 7.33656C10.0376 7.78188 9.80454 8.1926 9.4946 8.54207C9.18465 8.89154 8.80472 9.17196 8.37944 9.36516C7.95415 9.55836 7.493 9.66002 7.0259 9.66354C6.5588 9.66706 6.09618 9.57237 5.66803 9.38561C5.23988 9.19885 4.85576 8.92418 4.54058 8.57943C4.2254 8.23467 3.9862 7.82752 3.83849 7.38438C3.69077 6.94124 3.63785 6.47199 3.68314 6.00708V6.0075ZM6.88731 6.33333C7.98814 6.33333 8.84147 6.275 9.49564 6.17333C9.51714 6.51305 9.46905 6.85358 9.3543 7.17405C9.23954 7.49452 9.06056 7.78818 8.8283 8.03703C8.59605 8.28588 8.31542 8.48468 8.00362 8.62125C7.69183 8.75781 7.35542 8.82926 7.01503 8.83122C6.67464 8.83318 6.33744 8.76561 6.02409 8.63265C5.71074 8.49968 5.42784 8.30413 5.19274 8.05797C4.95763 7.81181 4.77527 7.52023 4.65684 7.2011C4.5384 6.88197 4.48639 6.54202 4.50397 6.20208C5.11356 6.28625 5.89481 6.33333 6.88731 6.33333Z" fill="white"/>
<path fill-rule="evenodd" clip-rule="evenodd" d="M10.5072 12.4167C10.1303 11.8287 9.61157 11.3449 8.9987 11.01C8.38584 10.675 7.69856 10.4997 7.00014 10.5C6.30143 10.4996 5.61384 10.675 5.00073 11.0101C4.38762 11.3452 3.86871 11.8292 3.4918 12.4175C3.35192 12.2021 3.13709 12.0462 2.88889 11.98L2.08389 11.7646C1.81707 11.6931 1.53276 11.7304 1.2935 11.8685C1.05424 12.0066 0.879625 12.234 0.808054 12.5008L0.484721 13.7083C0.449309 13.8405 0.440274 13.9783 0.458131 14.1139C0.475988 14.2496 0.520388 14.3804 0.588795 14.4988C0.657203 14.6173 0.748277 14.7211 0.856818 14.8044C0.965359 14.8877 1.08924 14.9488 1.22139 14.9842L2.02597 15.2C2.16131 15.2365 2.30262 15.2451 2.4414 15.2255C2.58018 15.2059 2.71355 15.1584 2.83347 15.0858C2.8338 15.1963 2.87802 15.3022 2.95639 15.3801C3.03477 15.458 3.14088 15.5016 3.25139 15.5012C3.36189 15.5009 3.46774 15.4567 3.54565 15.3783C3.62355 15.3 3.66714 15.1938 3.6668 15.0833V14.6667C3.6668 14.5079 3.67805 14.3517 3.6993 14.1988L5.86764 14.78C5.96829 14.9954 6.1283 15.1777 6.3289 15.3054C6.52949 15.4331 6.76235 15.5009 7.00014 15.5009C7.23793 15.5009 7.47078 15.4331 7.67138 15.3054C7.87197 15.1777 8.03199 14.9954 8.13264 14.78L10.301 14.1988C10.3222 14.3517 10.3335 14.5079 10.3335 14.6667V15.0833C10.3329 15.1938 10.3763 15.3 10.454 15.3786C10.5318 15.4571 10.6375 15.5015 10.7481 15.5021C10.8586 15.5026 10.9648 15.4593 11.0433 15.3815C11.1218 15.3038 11.1663 15.198 11.1668 15.0875C11.4001 15.2275 11.6885 15.2763 11.9722 15.2L12.7772 14.9846C12.9094 14.9492 13.0332 14.8881 13.1418 14.8048C13.2503 14.7216 13.3414 14.6177 13.4098 14.4992C13.4782 14.3808 13.5226 14.25 13.5405 14.1144C13.5583 13.9787 13.5493 13.8409 13.5139 13.7088L13.1901 12.5013C13.1186 12.2344 12.9439 12.007 12.7047 11.8689C12.4654 11.7308 12.1811 11.6935 11.9143 11.765L11.1093 11.9804C10.8617 12.0464 10.6472 12.2016 10.5072 12.4163V12.4167ZM3.91805 13.3946C4.14313 12.8502 4.5083 12.3752 4.97646 12.0177C5.44461 11.6602 5.99906 11.433 6.58347 11.3592V13.0713C6.39674 13.1375 6.22838 13.2471 6.09221 13.391C5.95604 13.5349 5.85595 13.7091 5.80014 13.8992L3.91805 13.395V13.3946ZM10.0822 13.3946C9.85711 12.8503 9.49193 12.3752 9.02378 12.0177C8.55563 11.6602 8.0012 11.433 7.4168 11.3592V13.0713C7.79347 13.2046 8.08764 13.5129 8.20014 13.8992L10.0822 13.395V13.3946ZM7.00014 14.6667C7.11064 14.6667 7.21663 14.6228 7.29476 14.5446C7.37291 14.4665 7.4168 14.3605 7.4168 14.25C7.4168 14.1395 7.37291 14.0335 7.29476 13.9554C7.21663 13.8772 7.11064 13.8333 7.00014 13.8333C6.88963 13.8333 6.78365 13.8772 6.70551 13.9554C6.62737 14.0335 6.58347 14.1395 6.58347 14.25C6.58347 14.3605 6.62737 14.4665 6.70551 14.5446C6.78365 14.6228 6.88963 14.6667 7.00014 14.6667Z" fill="white"/>
</svg>
