<svg width="47" height="45" viewBox="0 0 47 45" fill="none" xmlns="http://www.w3.org/2000/svg">
<path d="M41.2443 22.1625L40.9309 21.75C40.3826 21.1125 39.7364 20.6062 38.9922 20.2312C37.9934 19.6875 36.8576 19.4062 35.6826 19.4062H11.3014C10.1264 19.4062 9.0101 19.6875 7.99177 20.2312C7.22802 20.625 6.5426 21.1687 5.97469 21.8437C4.85844 23.2125 4.32969 24.9 4.50594 26.5875L5.23052 35.3438C5.4851 37.9875 5.81802 41.25 12.0259 41.25H34.9776C41.1855 41.25 41.4989 37.9875 41.773 35.325L42.4976 26.6062C42.6739 25.0312 42.243 23.4562 41.2443 22.1625ZM28.1822 32.5125H18.8018C18.038 32.5125 17.4309 31.9125 17.4309 31.2C17.4309 30.4875 18.038 29.8875 18.8018 29.8875H28.1822C28.9459 29.8875 29.553 30.4875 29.553 31.2C29.553 31.9312 28.9459 32.5125 28.1822 32.5125Z" fill="#3366FF"/>
<path opacity="0.4" d="M6.62109 21.2062C7.05193 20.8312 7.48276 20.4937 7.99193 20.2312C8.99068 19.6875 10.1265 19.4062 11.3015 19.4062H35.7023C36.8773 19.4062 37.9936 19.6875 39.0119 20.2312C39.5211 20.4937 39.9715 20.8312 40.3828 21.225V20.2312V18.4125C40.3828 11.7187 38.2482 9.675 31.2569 9.675H26.5961C25.7344 9.675 25.7148 9.65625 25.2057 9.01875L22.8557 6C21.7394 4.6125 20.8582 3.75 18.0578 3.75H15.7469C8.75568 3.75 6.62109 5.79375 6.62109 12.4875V20.25V21.2062Z" fill="#3366FF"/>
</svg>
