<svg width="366" height="164" viewBox="0 0 366 164" fill="none" xmlns="http://www.w3.org/2000/svg">
<path fill-rule="evenodd" clip-rule="evenodd" d="M50.1145 59.9397C32.6769 58.067 17.0239 71.1755 15.1853 89.1263C14.0507 100.204 19.1031 111.582 24.9973 120.102C27.9701 124.399 31.2313 128.08 34.1989 130.754C35.6813 132.09 37.1225 133.203 38.4468 134.02C39.7213 134.805 41.0828 135.439 42.3674 135.577C43.6521 135.715 45.1123 135.384 46.5183 134.886C47.9791 134.369 49.6146 133.586 51.3355 132.594C54.7803 130.609 58.7163 127.701 62.4951 124.129C69.9874 117.047 77.2352 106.99 78.3698 95.912C80.2084 77.9612 67.5521 61.8124 50.1145 59.9397ZM24.9632 90.1764C26.2393 77.7173 37.0819 68.6624 49.0891 69.952C61.0962 71.2415 69.8682 82.4028 68.5921 94.8619C67.7843 102.749 62.3748 110.331 56.3278 116.15C53.3427 119.022 50.292 121.377 47.7612 123.032C46.495 123.86 45.3822 124.497 44.4925 124.932C44.0585 125.145 43.6963 125.3 43.4087 125.405C43.1489 125.241 42.8262 125.013 42.445 124.713C41.663 124.099 40.7036 123.239 39.6326 122.161C37.4922 120.005 34.9851 117.053 32.647 113.609C27.9106 106.633 24.1552 98.0653 24.9632 90.1764Z" fill="url(#paint0_linear_122_18797)"/>
<path fill-rule="evenodd" clip-rule="evenodd" d="M8.67461 88.427C10.8853 66.8432 29.7163 51.0092 50.797 53.2732C71.8776 55.5371 87.0906 75.0273 84.8799 96.6111C83.5031 110.053 74.9139 121.512 66.935 129.054C62.8172 132.947 58.4732 136.172 54.5461 138.435C52.5885 139.563 50.5879 140.538 48.6569 141.221L46.5179 134.886L48.6569 141.221C46.9383 141.83 44.3938 142.534 41.6843 142.243C38.9748 141.952 36.6284 140.723 35.0704 139.762L38.4465 134.019L35.0704 139.762C33.32 138.683 31.5603 137.305 29.874 135.786C26.4909 132.737 22.8949 128.659 19.6554 123.977L24.997 120.102L19.6554 123.977C13.3784 114.903 7.29781 101.869 8.67461 88.427ZM48.4059 76.6183C40.0499 75.7209 32.378 82.0409 31.4732 90.8755C30.9124 96.3501 33.5834 103.246 38.0215 109.783C40.1226 112.878 42.3657 115.512 44.2223 117.382C44.2245 117.384 44.2267 117.386 44.2288 117.388C44.232 117.386 44.2352 117.384 44.2384 117.382C46.434 115.947 49.1622 113.846 51.8448 111.265C57.5115 105.812 61.5209 99.635 62.0814 94.1626C62.9863 85.3281 56.7619 77.5157 48.4059 76.6183Z" fill="url(#paint1_linear_122_18797)"/>
<path fill-rule="evenodd" clip-rule="evenodd" d="M0 70.6404C0 31.7186 30.6909 0 68.5 0C106.309 0 137 31.7186 137 70.6404C137 94.6596 123.665 117.898 109.152 134.813C101.833 143.344 94.03 150.486 87.0782 155.538C83.6054 158.061 80.2699 160.118 77.2505 161.563C74.3445 162.955 71.2855 164 68.5 164C65.7145 164 62.6555 162.955 59.7495 161.563C56.7301 160.118 53.3946 158.061 49.9218 155.538C49.4762 155.214 49.0272 154.882 48.575 154.541L70.1138 141.054C70.3076 140.937 70.5095 140.813 70.7193 140.682C72.5317 139.543 74.7783 137.92 77.3122 135.853C82.3764 131.722 88.4018 125.968 94.1729 119.12C105.863 105.249 115.799 87.7413 115.799 70.6404C115.799 43.6259 94.5347 21.709 68.5001 21.709C42.4656 21.709 21.2009 43.6259 21.2009 70.6404C21.2009 87.7455 31.1371 105.255 42.8274 119.126C47.8609 125.099 53.0877 130.239 57.7015 134.196L38.6706 146.15C35.0507 142.75 31.3925 138.944 27.8478 134.813C13.335 117.898 0 94.6596 0 70.6404Z" fill="url(#paint2_linear_122_18797)"/>
<path d="M179.3 118V48H195.5V118H179.3ZM245.913 119.2C240.379 119.2 235.279 118.333 230.613 116.6C226.013 114.8 221.979 112.267 218.512 109C215.113 105.733 212.446 101.9 210.513 97.5C208.646 93.1 207.713 88.2667 207.713 83C207.713 77.7333 208.646 72.9 210.513 68.5C212.446 64.1 215.146 60.2667 218.613 57C222.079 53.7333 226.146 51.2333 230.813 49.5C235.479 47.7 240.613 46.8 246.213 46.8C252.413 46.8 257.979 47.8333 262.913 49.9C267.913 51.9667 272.113 54.9667 275.513 58.9L265.113 68.5C262.579 65.8333 259.813 63.8667 256.813 62.6C253.813 61.2667 250.546 60.6 247.013 60.6C243.613 60.6 240.513 61.1333 237.713 62.2C234.913 63.2667 232.479 64.8 230.413 66.8C228.413 68.8 226.846 71.1667 225.713 73.9C224.646 76.6333 224.113 79.6667 224.113 83C224.113 86.2667 224.646 89.2667 225.713 92C226.846 94.7333 228.413 97.1333 230.413 99.2C232.479 101.2 234.879 102.733 237.613 103.8C240.413 104.867 243.479 105.4 246.813 105.4C250.013 105.4 253.113 104.9 256.113 103.9C259.179 102.833 262.146 101.067 265.013 98.6L274.213 110.3C270.413 113.167 265.979 115.367 260.913 116.9C255.913 118.433 250.913 119.2 245.913 119.2ZM259.413 108.2V81.9H274.213V110.3L259.413 108.2ZM323.261 119.2C317.728 119.2 312.594 118.3 307.861 116.5C303.194 114.7 299.128 112.167 295.661 108.9C292.261 105.633 289.594 101.8 287.661 97.4C285.794 93 284.861 88.2 284.861 83C284.861 77.8 285.794 73 287.661 68.6C289.594 64.2 292.294 60.3667 295.761 57.1C299.228 53.8333 303.294 51.3 307.961 49.5C312.628 47.7 317.694 46.8 323.161 46.8C328.694 46.8 333.761 47.7 338.361 49.5C343.028 51.3 347.061 53.8333 350.461 57.1C353.928 60.3667 356.628 64.2 358.561 68.6C360.494 72.9333 361.461 77.7333 361.461 83C361.461 88.2 360.494 93.0333 358.561 97.5C356.628 101.9 353.928 105.733 350.461 109C347.061 112.2 343.028 114.7 338.361 116.5C333.761 118.3 328.728 119.2 323.261 119.2ZM323.161 105.4C326.294 105.4 329.161 104.867 331.761 103.8C334.428 102.733 336.761 101.2 338.761 99.2C340.761 97.2 342.294 94.8333 343.361 92.1C344.494 89.3667 345.061 86.3333 345.061 83C345.061 79.6667 344.494 76.6333 343.361 73.9C342.294 71.1667 340.761 68.8 338.761 66.8C336.828 64.8 334.528 63.2667 331.861 62.2C329.194 61.1333 326.294 60.6 323.161 60.6C320.028 60.6 317.128 61.1333 314.461 62.2C311.861 63.2667 309.561 64.8 307.561 66.8C305.561 68.8 303.994 71.1667 302.861 73.9C301.794 76.6333 301.261 79.6667 301.261 83C301.261 86.2667 301.794 89.3 302.861 92.1C303.994 94.8333 305.528 97.2 307.461 99.2C309.461 101.2 311.794 102.733 314.461 103.8C317.128 104.867 320.028 105.4 323.161 105.4Z" fill="white"/>
<defs>
<linearGradient id="paint0_linear_122_18797" x1="15.8448" y1="48.3245" x2="92.8606" y2="131.75" gradientUnits="userSpaceOnUse">
<stop stop-color="white"/>
<stop offset="0.54395" stop-color="white"/>
<stop offset="1" stop-color="white"/>
</linearGradient>
<linearGradient id="paint1_linear_122_18797" x1="9.44127" y1="39.4983" x2="100.057" y2="140.149" gradientUnits="userSpaceOnUse">
<stop stop-color="white"/>
<stop offset="0.54395" stop-color="white"/>
<stop offset="1" stop-color="white"/>
</linearGradient>
<linearGradient id="paint2_linear_122_18797" x1="-7.54821" y1="-17.0174" x2="175.931" y2="144.187" gradientUnits="userSpaceOnUse">
<stop stop-color="white"/>
<stop offset="0.54395" stop-color="white"/>
<stop offset="1" stop-color="white"/>
</linearGradient>
</defs>
</svg>
