<svg width="348" height="81" viewBox="0 0 348 81" fill="none" xmlns="http://www.w3.org/2000/svg">
<path d="M96.8995 64V28.2803H107.257V64H96.8995ZM102.078 23.3008C100.175 23.3008 98.6257 22.7475 97.4306 21.641C96.2355 20.5344 95.638 19.1623 95.638 17.5246C95.638 15.8869 96.2355 14.5147 97.4306 13.4082C98.6257 12.3016 100.175 11.7484 102.078 11.7484C103.981 11.7484 105.531 12.2795 106.726 13.3418C107.921 14.3598 108.518 15.6877 108.518 17.3254C108.518 19.0516 107.921 20.4902 106.726 21.641C105.575 22.7475 104.026 23.3008 102.078 23.3008ZM117.6 64V17.5246H126.496L146.282 50.3229H141.568L161.021 17.5246H169.851L169.984 64H159.892L159.826 32.9943H161.685L146.149 59.0869H141.302L125.434 32.9943H127.692V64H117.6ZM198.007 64.5311C193.935 64.5311 190.35 63.7344 187.252 62.141C184.198 60.5475 181.829 58.3787 180.148 55.6344C178.466 52.8459 177.625 49.6811 177.625 46.1402C177.625 42.5549 178.443 39.3902 180.081 36.6459C181.763 33.8574 184.043 31.6885 186.92 30.1393C189.797 28.5459 193.05 27.7492 196.679 27.7492C200.176 27.7492 203.319 28.5016 206.107 30.0066C208.94 31.4672 211.175 33.5918 212.813 36.3803C214.451 39.1246 215.27 42.4221 215.27 46.2729C215.27 46.6713 215.248 47.1361 215.203 47.6672C215.159 48.1541 215.115 48.6189 215.07 49.0615H186.057V43.0197H209.626L205.643 44.8123C205.643 42.9533 205.266 41.3377 204.514 39.9656C203.761 38.5934 202.721 37.5311 201.393 36.7787C200.066 35.982 198.516 35.5836 196.746 35.5836C194.975 35.5836 193.404 35.982 192.032 36.7787C190.704 37.5311 189.664 38.6156 188.911 40.032C188.159 41.4041 187.783 43.0418 187.783 44.9451V46.5385C187.783 48.4861 188.203 50.2123 189.044 51.7172C189.929 53.1779 191.147 54.3066 192.696 55.1033C194.289 55.8557 196.148 56.232 198.273 56.232C200.176 56.232 201.836 55.9443 203.252 55.3689C204.713 54.7934 206.041 53.9303 207.236 52.7795L212.747 58.7549C211.109 60.6139 209.051 62.0525 206.572 63.0705C204.093 64.0443 201.239 64.5311 198.007 64.5311ZM222.165 64V14.7361H232.523V64H222.165ZM242.135 64V14.7361H252.493V64H242.135ZM274.122 64.5311C271.068 64.5311 268.125 64.177 265.292 63.4689C262.503 62.7164 260.29 61.7869 258.653 60.6803L262.105 53.2443C263.743 54.2623 265.668 55.1033 267.881 55.7672C270.139 56.3869 272.352 56.6967 274.521 56.6967C276.911 56.6967 278.593 56.409 279.567 55.8336C280.585 55.2582 281.094 54.4615 281.094 53.4434C281.094 52.6025 280.695 51.9828 279.898 51.5844C279.146 51.1418 278.128 50.8098 276.844 50.5885C275.561 50.3672 274.144 50.1459 272.595 49.9246C271.09 49.7033 269.563 49.4156 268.014 49.0615C266.465 48.6631 265.048 48.0877 263.765 47.3352C262.481 46.5828 261.441 45.5648 260.644 44.2811C259.892 42.9975 259.516 41.3377 259.516 39.3016C259.516 37.0443 260.157 35.0525 261.441 33.3262C262.769 31.6 264.672 30.25 267.151 29.2762C269.63 28.2582 272.595 27.7492 276.048 27.7492C278.482 27.7492 280.961 28.0148 283.484 28.5459C286.007 29.077 288.109 29.8516 289.791 30.8697L286.339 38.2393C284.612 37.2213 282.864 36.5352 281.094 36.1811C279.367 35.7828 277.685 35.5836 276.048 35.5836C273.746 35.5836 272.064 35.8934 271.002 36.5131C269.939 37.1328 269.408 37.9295 269.408 38.9033C269.408 39.7885 269.785 40.4525 270.537 40.8951C271.334 41.3377 272.374 41.6918 273.657 41.9574C274.941 42.2229 276.335 42.4664 277.84 42.6877C279.389 42.8648 280.939 43.1525 282.488 43.5508C284.037 43.9492 285.431 44.5246 286.671 45.277C287.954 45.9852 288.994 46.9811 289.791 48.2648C290.588 49.5041 290.986 51.1418 290.986 53.1779C290.986 55.391 290.322 57.3607 288.994 59.0869C287.667 60.7689 285.741 62.0967 283.218 63.0705C280.739 64.0443 277.707 64.5311 274.122 64.5311Z" fill="url(#paint0_linear_1690_592)"/>
<path fill-rule="evenodd" clip-rule="evenodd" d="M39.0702 9.707C48.308 8.82625 56.6004 14.9912 57.5744 23.4336C58.1755 28.6435 55.4989 33.9945 52.3764 38.0016C50.8015 40.0225 49.0738 41.7535 47.5017 43.0111C46.7164 43.6394 45.9529 44.1632 45.2513 44.5471C44.5761 44.9166 43.8549 45.2145 43.1743 45.2794C42.4937 45.3443 41.7202 45.1889 40.9754 44.9548C40.2015 44.7115 39.335 44.3431 38.4234 43.8767C36.5984 42.9429 34.5133 41.5755 32.5115 39.8955C28.5423 36.5646 24.7027 31.8348 24.1016 26.6249C23.1276 18.1826 29.8324 10.5877 39.0702 9.707ZM52.3945 23.9275C51.7184 18.0679 45.9744 13.8093 39.6135 14.4158C33.2525 15.0223 28.6054 20.2715 29.2815 26.1311C29.7094 29.8403 32.5752 33.4063 35.7786 36.1428C37.36 37.4938 38.9762 38.6015 40.3169 39.3796C40.9877 39.7689 41.5772 40.0685 42.0485 40.2733C42.2784 40.3731 42.4704 40.4462 42.6227 40.4955C42.7603 40.4186 42.9313 40.3112 43.1332 40.1703C43.5475 39.8812 44.0558 39.4771 44.6231 38.9699C45.7571 37.9561 47.0852 36.5678 48.3239 34.9481C50.833 31.6669 52.8225 27.6376 52.3945 23.9275Z" fill="#232930"/>
<path fill-rule="evenodd" clip-rule="evenodd" d="M60.7721 21.0987C59.6009 10.9477 49.6249 3.50086 38.4572 4.56561C27.2895 5.63035 19.2302 14.7967 20.4014 24.9476C21.1307 31.2696 25.6809 36.6585 29.9079 40.2058C32.0893 42.0364 34.3906 43.5532 36.4711 44.6177C37.5081 45.1484 38.568 45.6066 39.5909 45.9281C40.5014 46.2142 41.8494 46.5454 43.2848 46.4086C44.7201 46.2717 45.9632 45.6935 46.7885 45.2418C47.7159 44.7344 48.6481 44.0863 49.5414 43.3716C51.3337 41.9378 53.2387 40.02 54.9549 37.8178C58.2802 33.5505 61.5015 27.4206 60.7721 21.0987ZM39.7239 15.5449C44.1506 15.1229 48.2149 18.0952 48.6942 22.2502C48.9913 24.8249 47.5763 28.068 45.2252 31.1425C44.1121 32.5981 42.9238 33.8368 41.9402 34.7162C41.9391 34.7172 41.9379 34.7182 41.9368 34.7192C41.9351 34.7183 41.9334 34.7173 41.9317 34.7163C40.7686 34.0413 39.3233 33.0534 37.9021 31.8394C34.9001 29.275 32.776 26.3698 32.4791 23.7961C31.9997 19.6412 35.2972 15.967 39.7239 15.5449Z" fill="black"/>
<path fill-rule="evenodd" clip-rule="evenodd" d="M72.5781 34.2225C72.5781 15.9174 56.3192 1 36.2894 1C16.2595 1 0.000586808 15.9174 0.000586808 34.2225C0.000586808 45.5189 7.06496 56.4478 14.7533 64.4031C18.6309 68.4153 22.7645 71.7743 26.4473 74.1501C28.287 75.337 30.0541 76.3042 31.6537 76.9841C33.1932 77.6385 34.8137 78.13 36.2894 78.13C37.765 78.13 39.3855 77.6385 40.925 76.9841C42.5246 76.3042 44.2917 75.337 46.1314 74.1501C46.3674 73.9978 46.6053 73.8415 46.8449 73.6813L35.4344 67.3383C35.3318 67.2836 35.2248 67.2253 35.1137 67.1633C34.1535 66.6277 32.9633 65.8646 31.621 64.8925C28.9382 62.9496 25.7461 60.2435 22.6888 57.0229C16.4956 50.4989 11.2319 42.2652 11.2319 34.2225C11.2319 21.5175 22.4971 11.2099 36.2893 11.2099C50.0814 11.2099 61.3467 21.5175 61.3467 34.2225C61.3467 42.2671 56.0829 50.5018 49.8898 57.0257C47.2232 59.8347 37.6893 65.3752 35.2451 67.2359L46.8449 73.6813C48.7626 72.0821 55.9475 66.3462 57.8254 64.4031C65.5138 56.4478 72.5781 45.5189 72.5781 34.2225Z" fill="black"/>
<defs>
<linearGradient id="paint0_linear_1690_592" x1="78.0209" y1="-8.40496" x2="128.459" y2="159.176" gradientUnits="userSpaceOnUse">
<stop/>
<stop offset="0.54395"/>
<stop offset="1"/>
</linearGradient>
</defs>
</svg>
