<svg width="200" height="84" viewBox="0 0 200 84" fill="none" xmlns="http://www.w3.org/2000/svg">
<rect x="9.11392" y="12.8401" width="69.2658" height="58.7007" rx="29.3504" fill="#000056"/>
<path d="M91.6276 58.202V38.5677H97.3208V58.202H91.6276ZM94.4742 35.8306C93.4281 35.8306 92.5765 35.5265 91.9196 34.9182C91.2627 34.31 90.9342 33.5557 90.9342 32.6555C90.9342 31.7553 91.2627 31.0011 91.9196 30.3928C92.5765 29.7846 93.4281 29.4805 94.4742 29.4805C95.5204 29.4805 96.372 29.7724 97.0289 30.3563C97.6858 30.9159 98.0142 31.6458 98.0142 32.546C98.0142 33.4949 97.6858 34.2856 97.0289 34.9182C96.3963 35.5265 95.5448 35.8306 94.4742 35.8306ZM103.006 58.202V32.6555H107.896L118.772 50.684H116.181L126.874 32.6555H131.728L131.801 58.202H126.253L126.217 41.1588H127.239L118.699 55.5013H116.035L107.312 41.1588H108.553V58.202H103.006ZM147.204 58.4939C144.966 58.4939 142.995 58.056 141.292 57.1801C139.613 56.3042 138.312 55.1121 137.387 53.6036C136.463 52.0708 136 50.3312 136 48.3848C136 46.4141 136.45 44.6745 137.351 43.1661C138.275 41.6333 139.528 40.4411 141.11 39.5896C142.691 38.7137 144.479 38.2757 146.474 38.2757C148.396 38.2757 150.124 38.6893 151.657 39.5166C153.214 40.3195 154.442 41.4873 155.343 43.0201C156.243 44.5285 156.693 46.3411 156.693 48.4578C156.693 48.6768 156.681 48.9323 156.656 49.2242C156.632 49.4918 156.608 49.7473 156.583 49.9906H140.635V46.6696H153.591L151.401 47.6549C151.401 46.6331 151.194 45.745 150.781 44.9908C150.367 44.2366 149.795 43.6527 149.066 43.239C148.336 42.8011 147.484 42.5821 146.511 42.5821C145.538 42.5821 144.674 42.8011 143.92 43.239C143.19 43.6527 142.618 44.2487 142.204 45.0273C141.791 45.7815 141.584 46.6817 141.584 47.7279V48.6038C141.584 49.6743 141.815 50.6232 142.277 51.4504C142.764 52.2533 143.433 52.8737 144.285 53.3116C145.161 53.7253 146.182 53.9321 147.35 53.9321C148.396 53.9321 149.309 53.7739 150.087 53.4576C150.89 53.1413 151.62 52.6669 152.277 52.0343L155.306 55.3189C154.406 56.3407 153.275 57.1314 151.912 57.691C150.55 58.2263 148.98 58.4939 147.204 58.4939ZM160.483 58.202V31.1227H166.177V58.202H160.483ZM171.46 58.202V31.1227H177.154V58.202H171.46ZM189.043 58.4939C187.364 58.4939 185.746 58.2993 184.189 57.91C182.656 57.4964 181.44 56.9855 180.54 56.3772L182.437 52.2898C183.337 52.8494 184.396 53.3116 185.612 53.6766C186.853 54.0172 188.07 54.1875 189.262 54.1875C190.576 54.1875 191.5 54.0294 192.035 53.7131C192.595 53.3968 192.875 52.9589 192.875 52.3993C192.875 51.937 192.656 51.5964 192.218 51.3774C191.804 51.1341 191.245 50.9516 190.539 50.83C189.834 50.7083 189.055 50.5867 188.203 50.465C187.376 50.3434 186.537 50.1852 185.685 49.9906C184.834 49.7716 184.055 49.4553 183.35 49.0417C182.644 48.6281 182.072 48.0685 181.634 47.363C181.221 46.6574 181.014 45.745 181.014 44.6259C181.014 43.385 181.367 42.2902 182.072 41.3413C182.802 40.3924 183.848 39.6504 185.211 39.1151C186.573 38.5555 188.203 38.2757 190.101 38.2757C191.439 38.2757 192.802 38.4217 194.189 38.7137C195.575 39.0056 196.731 39.4314 197.656 39.991L195.758 44.0419C194.809 43.4823 193.848 43.1052 192.875 42.9106C191.926 42.6916 191.001 42.5821 190.101 42.5821C188.836 42.5821 187.912 42.7524 187.328 43.0931C186.744 43.4337 186.452 43.8716 186.452 44.4069C186.452 44.8935 186.659 45.2584 187.072 45.5017C187.51 45.745 188.082 45.9397 188.787 46.0856C189.493 46.2316 190.259 46.3654 191.087 46.4871C191.938 46.5844 192.79 46.7426 193.641 46.9615C194.493 47.1805 195.259 47.4968 195.94 47.9104C196.646 48.2997 197.218 48.8471 197.656 49.5527C198.094 50.2339 198.313 51.1341 198.313 52.2533C198.313 53.4698 197.948 54.5525 197.218 55.5013C196.488 56.4259 195.429 57.1558 194.043 57.691C192.68 58.2263 191.014 58.4939 189.043 58.4939Z" fill="#000056"/>
<path fill-rule="evenodd" clip-rule="evenodd" d="M47.0972 9.46564C58.2336 8.50815 68.2302 15.2103 69.4044 24.3883C70.129 30.0522 66.9024 35.8695 63.138 40.2257C61.2395 42.4228 59.1568 44.3045 57.2616 45.6718C56.3148 46.3548 55.3944 46.9242 54.5487 47.3416C53.7347 47.7433 52.8652 48.0672 52.0448 48.1377C51.2243 48.2083 50.2918 48.0393 49.3939 47.7848C48.4609 47.5204 47.4165 47.1199 46.3174 46.6127C44.1175 45.5976 41.6038 44.111 39.1905 42.2847C34.4056 38.6635 29.7768 33.5216 29.0522 27.8577C27.878 18.6798 35.9609 10.4231 47.0972 9.46564ZM63.1599 24.9252C62.3449 18.555 55.4204 13.9254 47.7521 14.5847C40.0838 15.2441 34.4817 20.9507 35.2967 27.3209C35.8126 31.3533 39.2673 35.23 43.1291 38.205C45.0356 39.6736 46.9839 40.8779 48.6001 41.7238C49.4088 42.147 50.1195 42.4727 50.6877 42.6953C50.9648 42.8039 51.1962 42.8833 51.3798 42.937C51.5457 42.8534 51.7518 42.7365 51.9953 42.5834C52.4947 42.2692 53.1074 41.8298 53.7914 41.2784C55.1583 40.1763 56.7595 38.667 58.2527 36.9061C61.2775 33.3391 63.6759 28.9587 63.1599 24.9252Z" fill="#232930"/>
<path fill-rule="evenodd" clip-rule="evenodd" d="M73.2612 21.8499C71.8494 10.8144 59.8231 2.71874 46.3602 3.87626C32.8973 5.03378 23.1817 14.9988 24.5935 26.0343C25.4728 32.9071 30.9582 38.7657 36.0538 42.622C38.6836 44.6122 41.4579 46.2611 43.9659 47.4184C45.2161 47.9953 46.4937 48.4934 47.7269 48.8429C48.8245 49.154 50.4495 49.5141 52.1799 49.3653C53.9103 49.2165 55.4088 48.5879 56.4038 48.0969C57.5217 47.5452 58.6455 46.8406 59.7225 46.0637C61.883 44.505 64.1796 42.4201 66.2484 40.0259C70.2572 35.3868 74.1405 28.7227 73.2612 21.8499ZM47.8872 15.8123C53.2237 15.3535 58.1233 18.5848 58.7011 23.1018C59.0592 25.9009 57.3535 29.4265 54.5191 32.769C53.1772 34.3514 51.7447 35.6981 50.559 36.654C50.5576 36.6552 50.5563 36.6563 50.5549 36.6574C50.5528 36.6563 50.5508 36.6553 50.5488 36.6542C49.1466 35.9203 47.4042 34.8464 45.691 33.5266C42.072 30.7387 39.5114 27.5804 39.1535 24.7825C38.5756 20.2655 42.5507 16.2711 47.8872 15.8123Z" fill="white"/>
<path fill-rule="evenodd" clip-rule="evenodd" d="M87.4937 36.1174C87.4937 16.2172 67.8932 0 43.7468 0C19.6004 0 -1.52588e-05 16.2172 -1.52588e-05 36.1174C-1.52588e-05 48.3981 8.51622 60.2794 17.7847 68.9278C22.4592 73.2896 27.4423 76.9413 31.882 79.5242C34.0999 80.8144 36.2301 81.866 38.1584 82.6051C40.0143 83.3165 41.9679 83.8508 43.7468 83.8508C45.5258 83.8508 47.4793 83.3165 49.3352 82.6051C51.2636 81.866 53.3938 80.8144 55.6116 79.5242C55.8962 79.3586 56.1829 79.1887 56.4717 79.0145L42.7162 72.1188C42.5924 72.0593 42.4635 71.9959 42.3295 71.9285C41.172 71.3463 39.7372 70.5167 38.119 69.4599C34.8848 67.3477 31.0367 64.4058 27.3511 60.9045C19.885 53.8121 13.5395 44.8609 13.5395 36.1174C13.5395 22.3053 27.12 11.0995 43.7467 11.0995C60.3734 11.0995 73.9539 22.3053 73.9539 36.1174C73.9539 44.863 67.6083 53.8153 60.1424 60.9076C56.9278 63.9613 45.4345 69.9846 42.4879 72.0075L56.4717 79.0145C58.7835 77.2759 67.4451 71.0402 69.709 68.9278C78.9774 60.2794 87.4937 48.3981 87.4937 36.1174Z" fill="white"/>
</svg>
