<svg width="351" height="583" viewBox="0 0 351 583" fill="none" xmlns="http://www.w3.org/2000/svg">
<g clip-path="url(#clip0_1690_373)">
<path d="M0 20C0 8.95432 8.95431 0 20 0H351V583H20C8.95431 583 0 574.046 0 563V20Z" fill="black"/>
<path fill-rule="evenodd" clip-rule="evenodd" d="M41.7112 650.007C26.7031 640.268 23.6091 620.803 34.9868 606.567C46.3645 592.331 67.8329 588.805 82.841 598.544C92.1879 604.61 96.7444 615.089 98.6741 623.652C99.67 628.071 100.066 632.399 99.9404 636.066C99.8776 637.894 99.6807 639.694 99.3 641.335L93.6126 640.472L99.3 641.335C98.9612 642.795 98.3137 644.883 96.8513 646.713C95.3889 648.543 93.3967 649.758 91.9671 650.51L89.2563 645.923L91.9671 650.51C90.3608 651.356 88.5282 652.095 86.6242 652.728C82.8046 653.997 78.123 655.031 73.1562 655.58L72.7365 650.292L73.1562 655.58C63.5322 656.645 51.0581 656.073 41.7112 650.007ZM51.2197 617.101C46.7097 622.744 47.8731 630.624 54.0161 634.611C57.8228 637.081 64.1712 637.775 71.0664 637.068C74.3308 636.734 77.318 636.123 79.5603 635.501C79.5629 635.5 79.5655 635.499 79.5682 635.498C79.5681 635.495 79.568 635.492 79.5679 635.489C79.5122 633.375 79.2077 630.628 78.5251 627.732C77.0833 621.615 74.3413 616.41 70.5362 613.941C64.3931 609.954 55.7296 611.458 51.2197 617.101Z" fill="white"/>
<path fill-rule="evenodd" clip-rule="evenodd" d="M23.9976 649.719C-4.83959 634.978 -14.2671 600.921 3.06958 573.765C20.4063 546.608 57.9793 536.577 86.8165 551.318C104.612 560.415 115.715 578.794 121.593 595.624C124.557 604.112 126.271 612.422 126.826 619.328C127.103 622.778 127.098 625.953 126.784 628.669C126.483 631.283 125.854 633.876 124.577 635.877C123.3 637.878 121.123 639.679 118.759 641.239C116.304 642.86 113.251 644.477 109.789 646.016C109.344 646.213 108.892 646.41 108.433 646.606L108.316 626.027C108.319 625.844 108.32 625.652 108.318 625.451C108.306 623.718 108.133 621.49 107.764 618.887C107.025 613.685 105.525 607.178 103.098 600.44C98.1805 586.789 89.7653 573.022 77.0953 566.545C57.0803 556.314 31.0915 563.287 19.1539 581.987C7.21618 600.686 13.7038 624.26 33.7189 634.491C46.392 640.97 63.9207 640.464 79.5585 637.321C86.2916 635.968 92.4966 634.16 97.5435 632.345L97.6746 650.542C93.4955 651.854 88.9984 653.04 84.3119 654.021C65.1249 658.039 41.7934 658.816 23.9976 649.719Z" fill="white"/>
<path fill-rule="evenodd" clip-rule="evenodd" d="M107.928 500.588C98.5132 512.367 101.046 528.532 113.532 536.634C121.238 541.634 132.013 542.317 141.053 541.317C145.612 540.812 149.846 539.868 153.198 538.754C154.872 538.197 156.363 537.586 157.578 536.947C158.748 536.331 159.845 535.595 160.539 534.728C161.232 533.86 161.659 532.689 161.936 531.494C162.224 530.253 162.395 528.785 162.45 527.178C162.56 523.961 162.212 520.043 161.298 515.987C159.485 507.944 155.351 498.952 147.646 493.952C135.16 485.85 117.342 488.808 107.928 500.588ZM118.811 530.029C110.145 524.405 108.409 513.218 114.892 505.107C121.375 496.996 133.701 494.933 142.367 500.557C147.853 504.117 150.995 510.857 152.534 517.387C153.294 520.61 153.639 523.685 153.704 526.123C153.736 527.343 153.697 528.38 153.611 529.182C153.569 529.573 153.517 529.891 153.463 530.137C153.222 530.261 152.904 530.406 152.506 530.565C151.69 530.893 150.61 531.255 149.316 531.615C146.73 532.333 143.384 533.012 139.751 533.385C132.39 534.139 124.299 533.59 118.811 530.029Z" fill="white"/>
<path fill-rule="evenodd" clip-rule="evenodd" d="M110.026 541.025C95.0175 531.285 91.9235 511.82 103.301 497.584C114.679 483.348 136.147 479.823 151.155 489.562C160.502 495.628 165.059 506.107 166.989 514.669C167.984 519.088 168.381 523.417 168.255 527.084C168.192 528.912 167.995 530.712 167.614 532.353L161.927 531.49L167.614 532.353C167.276 533.813 166.628 535.901 165.166 537.731C163.703 539.56 161.711 540.775 160.282 541.528L157.571 536.941L160.282 541.528C158.675 542.373 156.843 543.112 154.939 543.745C151.119 545.015 146.437 546.048 141.471 546.598L141.051 541.31L141.471 546.598C131.847 547.663 119.373 547.09 110.026 541.025ZM119.534 508.118C115.024 513.761 116.188 521.642 122.331 525.628C126.137 528.099 132.486 528.793 139.381 528.086C142.645 527.751 145.633 527.141 147.875 526.518C147.877 526.517 147.88 526.517 147.883 526.516C147.883 526.513 147.882 526.51 147.882 526.507C147.827 524.393 147.522 521.646 146.84 518.75C145.398 512.632 142.656 507.427 138.851 504.958C132.708 500.972 124.044 502.475 119.534 508.118Z" fill="white"/>
<path fill-rule="evenodd" clip-rule="evenodd" d="M92.3121 540.737C63.4749 525.996 54.0474 491.939 71.384 464.782C88.7207 437.626 126.294 427.595 155.131 442.336C172.927 451.432 184.029 469.811 189.907 486.642C192.872 495.13 194.585 503.439 195.14 510.345C195.418 513.796 195.412 516.97 195.099 519.686C194.797 522.301 194.169 524.894 192.892 526.894C191.614 528.895 189.437 530.696 187.074 532.257C184.618 533.878 181.565 535.495 178.103 537.033C177.659 537.231 177.207 537.427 176.747 537.623L176.631 517.045C176.633 516.862 176.634 516.67 176.633 516.469C176.62 514.736 176.448 512.508 176.078 509.905C175.34 504.703 173.839 498.196 171.412 491.457C166.495 477.807 158.08 464.04 145.41 457.563C125.395 447.332 99.406 454.305 87.4683 473.004C75.5306 491.704 82.0183 515.278 102.033 525.509C114.706 531.987 132.235 531.482 147.873 528.339C154.606 526.985 160.811 525.178 165.858 523.363L165.989 541.559C161.81 542.872 157.313 544.058 152.626 545.039C133.439 549.057 110.108 549.833 92.3121 540.737Z" fill="white"/>
<path fill-rule="evenodd" clip-rule="evenodd" d="M-68.4392 304.271C-83.4473 294.532 -86.5413 275.067 -75.1636 260.831C-63.7859 246.595 -42.3175 243.069 -27.3094 252.809C-17.9625 258.874 -13.406 269.353 -11.4763 277.916C-10.4804 282.335 -10.0841 286.664 -10.21 290.33C-10.2728 292.158 -10.4697 293.959 -10.8503 295.599L-16.5378 294.736L-10.8504 295.599C-11.1892 297.06 -11.8367 299.147 -13.2991 300.977C-14.7615 302.807 -16.7536 304.022 -18.1833 304.774L-20.8941 300.187L-18.1833 304.774C-19.7896 305.62 -21.6222 306.359 -23.5262 306.992C-27.3457 308.262 -32.0274 309.295 -36.9942 309.844L-37.4139 304.556L-36.9942 309.844C-46.6182 310.909 -59.0923 310.337 -68.4392 304.271ZM-58.9307 271.365C-63.4407 277.008 -62.2773 284.888 -56.1343 288.875C-52.3276 291.345 -45.9792 292.039 -39.084 291.332C-35.8196 290.998 -32.8323 290.387 -30.5901 289.765C-30.5875 289.764 -30.5849 289.763 -30.5822 289.763C-30.5823 289.76 -30.5824 289.756 -30.5825 289.753C-30.6382 287.639 -30.9427 284.892 -31.6253 281.996C-33.0671 275.879 -35.8091 270.674 -39.6142 268.205C-45.7573 264.218 -54.4208 265.722 -58.9307 271.365Z" fill="white"/>
<path fill-rule="evenodd" clip-rule="evenodd" d="M-86.1528 303.983C-114.99 289.242 -124.417 255.186 -107.081 228.029C-89.7441 200.872 -52.1711 190.841 -23.3339 205.582C-5.53814 214.679 5.56436 233.058 11.4422 249.888C14.4067 258.376 16.1205 266.686 16.6756 273.592C16.9529 277.042 16.9473 280.217 16.6338 282.933C16.3322 285.547 15.7039 288.14 14.4267 290.141C13.1494 292.142 10.9724 293.943 8.60909 295.503C6.1535 297.124 3.10029 298.741 -0.361787 300.28C-0.80595 300.477 -1.25808 300.674 -1.71788 300.87L-1.83417 280.291C-1.8315 280.108 -1.8308 279.916 -1.83226 279.716C-1.84488 277.982 -2.0169 275.754 -2.38646 273.152C-3.12508 267.95 -4.62537 261.443 -7.05275 254.704C-11.9699 241.053 -20.3851 227.286 -33.0551 220.81C-53.0701 210.578 -79.0588 217.551 -90.9965 236.251C-102.934 254.95 -96.4466 278.524 -76.4315 288.756C-63.7584 295.234 -46.2297 294.728 -30.5919 291.585C-23.8588 290.232 -17.6538 288.425 -12.6069 286.609L-12.4758 304.806C-16.6549 306.118 -21.152 307.304 -25.8385 308.286C-45.0255 312.303 -68.357 313.08 -86.1528 303.983Z" fill="white"/>
<path fill-rule="evenodd" clip-rule="evenodd" d="M176.242 391.606C166.828 403.385 169.361 419.55 181.847 427.652C189.552 432.652 200.327 433.335 209.367 432.335C213.927 431.83 218.161 430.886 221.512 429.772C223.187 429.215 224.677 428.604 225.893 427.965C227.063 427.349 228.16 426.614 228.853 425.746C229.547 424.878 229.973 423.707 230.25 422.512C230.538 421.271 230.709 419.803 230.764 418.196C230.875 414.979 230.527 411.061 229.612 407.005C227.8 398.962 223.665 389.97 215.96 384.97C203.474 376.868 185.657 379.826 176.242 391.606ZM187.126 421.047C178.46 415.423 176.724 404.236 183.206 396.125C189.689 388.014 202.015 385.951 210.681 391.575C216.167 395.135 219.309 401.875 220.848 408.405C221.608 411.628 221.954 414.703 222.018 417.141C222.05 418.361 222.011 419.398 221.925 420.2C221.883 420.591 221.832 420.909 221.778 421.155C221.537 421.279 221.218 421.424 220.82 421.584C220.004 421.911 218.925 422.273 217.631 422.633C215.045 423.351 211.699 424.03 208.065 424.403C200.704 425.157 192.613 424.608 187.126 421.047Z" fill="white"/>
<path fill-rule="evenodd" clip-rule="evenodd" d="M178.34 432.043C163.332 422.303 160.238 402.838 171.616 388.602C182.993 374.366 204.462 370.841 219.47 380.58C228.817 386.646 233.373 397.125 235.303 405.687C236.299 410.106 236.695 414.435 236.569 418.102C236.507 419.93 236.31 421.73 235.929 423.371L230.242 422.508L235.929 423.371C235.59 424.831 234.943 426.919 233.48 428.749C232.018 430.578 230.026 431.793 228.596 432.546L225.885 427.959L228.596 432.546C226.99 433.391 225.157 434.13 223.253 434.763C219.434 436.033 214.752 437.066 209.785 437.616L209.365 432.328L209.785 437.616C200.161 438.681 187.687 438.108 178.34 432.043ZM187.849 399.136C183.339 404.779 184.502 412.66 190.645 416.646C194.452 419.117 200.8 419.811 207.695 419.104C210.96 418.769 213.947 418.159 216.189 417.536C216.192 417.536 216.194 417.535 216.197 417.534C216.197 417.531 216.197 417.528 216.197 417.525C216.141 415.411 215.837 412.664 215.154 409.768C213.712 403.65 210.97 398.446 207.165 395.976C201.022 391.99 192.359 393.493 187.849 399.136Z" fill="white"/>
<path fill-rule="evenodd" clip-rule="evenodd" d="M160.627 431.755C131.789 417.014 122.362 382.957 139.698 355.8C157.035 328.644 194.608 318.613 223.445 333.354C241.241 342.45 252.344 360.829 258.222 377.66C261.186 386.148 262.9 394.457 263.455 401.364C263.732 404.814 263.727 407.988 263.413 410.705C263.111 413.319 262.483 415.912 261.206 417.912C259.929 419.913 257.752 421.714 255.388 423.275C252.933 424.896 249.88 426.513 246.418 428.051C245.973 428.249 245.521 428.445 245.061 428.641L244.945 408.063C244.948 407.88 244.948 407.688 244.947 407.487C244.934 405.754 244.762 403.526 244.393 400.923C243.654 395.721 242.154 389.214 239.727 382.475C234.809 368.825 226.394 355.058 213.724 348.581C193.709 338.35 167.72 345.323 155.783 364.022C143.845 382.722 150.333 406.296 170.348 416.527C183.021 423.005 200.55 422.5 216.187 419.357C222.921 418.004 229.125 416.196 234.172 414.381L234.304 432.577C230.124 433.89 225.627 435.076 220.941 436.057C201.754 440.075 178.422 440.852 160.627 431.755Z" fill="white"/>
<path fill-rule="evenodd" clip-rule="evenodd" d="M-2.2246 154.852C-11.6391 166.632 -9.10599 182.796 3.38008 190.899C11.0854 195.899 21.8605 196.582 30.9006 195.581C35.4599 195.077 39.694 194.133 43.0456 193.019C44.7199 192.462 46.2102 191.851 47.4258 191.211C48.5957 190.596 49.6927 189.86 50.3863 188.992C51.0799 188.124 51.5063 186.954 51.7836 185.759C52.0717 184.517 52.2424 183.05 52.2976 181.443C52.4081 178.225 52.0598 174.308 51.1456 170.251C49.333 162.209 45.1987 153.217 37.4934 148.217C25.0073 140.114 7.18995 143.073 -2.2246 154.852ZM8.65914 184.294C-0.00708609 178.67 -1.74301 167.482 4.73966 159.371C11.2223 151.26 23.5482 149.198 32.2144 154.822C37.7003 158.381 40.8425 165.121 42.3816 171.651C43.1414 174.875 43.4869 177.95 43.5512 180.388C43.5833 181.607 43.5444 182.645 43.4584 183.447C43.4165 183.838 43.3651 184.156 43.3107 184.401C43.0697 184.526 42.7516 184.67 42.3536 184.83C41.5374 185.158 40.4578 185.52 39.164 185.879C36.5781 186.597 33.2322 187.277 29.5984 187.649C22.2375 188.404 14.1464 187.854 8.65914 184.294Z" fill="white"/>
<path fill-rule="evenodd" clip-rule="evenodd" d="M-0.126702 195.289C-15.1348 185.55 -18.2288 166.085 -6.8511 151.849C4.52663 137.613 25.995 134.087 41.0031 143.827C50.35 149.892 54.9065 160.372 56.8362 168.934C57.8321 173.353 58.2284 177.682 58.1025 181.348C58.0397 183.176 57.8428 184.977 57.4622 186.617L51.7747 185.755L57.4621 186.617C57.1233 188.078 56.4758 190.165 55.0134 191.995C53.551 193.825 51.5589 195.04 50.1292 195.792L47.4184 191.205L50.1292 195.793C48.5229 196.638 46.6903 197.377 44.7863 198.01C40.9668 199.28 36.2851 200.313 31.3183 200.863L30.8986 195.574L31.3183 200.863C21.6943 201.927 9.2202 201.355 -0.126702 195.289ZM9.38179 162.383C4.87184 168.026 6.0352 175.907 12.1782 179.893C15.9849 182.363 22.3333 183.057 29.2285 182.35C32.4929 182.016 35.4802 181.405 37.7224 180.783C37.725 180.782 37.7276 180.781 37.7303 180.781C37.7302 180.778 37.7301 180.775 37.73 180.771C37.6743 178.657 37.3698 175.91 36.6872 173.014C35.2454 166.897 32.5034 161.692 28.6983 159.223C22.5552 155.236 13.8917 156.74 9.38179 162.383Z" fill="white"/>
<path fill-rule="evenodd" clip-rule="evenodd" d="M-17.8403 195.001C-46.6775 180.26 -56.105 146.203 -38.7683 119.047C-21.4316 91.8902 16.1414 81.8591 44.9786 96.6C62.7744 105.697 73.8769 124.076 79.7547 140.906C82.7192 149.394 84.433 157.704 84.9881 164.61C85.2654 168.06 85.2598 171.235 84.9463 173.951C84.6447 176.565 84.0164 179.158 82.7392 181.159C81.4619 183.159 79.2849 184.961 76.9216 186.521C74.466 188.142 71.4128 189.759 67.9507 191.298C67.5065 191.495 67.0544 191.692 66.5946 191.887L66.4783 171.309C66.481 171.126 66.4817 170.934 66.4802 170.733C66.4676 169 66.2956 166.772 65.926 164.169C65.1874 158.967 63.6871 152.46 61.2597 145.722C56.3426 132.071 47.9274 118.304 35.2574 111.827C15.2424 101.596 -10.7463 108.569 -22.684 127.269C-34.6217 145.968 -28.1341 169.542 -8.11901 179.773C4.55409 186.252 22.0828 185.746 37.7206 182.603C44.4537 181.25 50.6587 179.442 55.7056 177.627L55.8367 195.824C51.6576 197.136 47.1605 198.322 42.474 199.303C23.287 203.321 -0.0444958 204.098 -17.8403 195.001Z" fill="white"/>
<path fill-rule="evenodd" clip-rule="evenodd" d="M244.557 282.624C235.142 294.403 237.675 310.567 250.161 318.67C257.867 323.67 268.642 324.353 277.682 323.353C282.241 322.848 286.475 321.904 289.827 320.79C291.501 320.233 292.991 319.622 294.207 318.983C295.377 318.367 296.474 317.631 297.168 316.764C297.861 315.896 298.288 314.725 298.565 313.53C298.853 312.288 299.024 310.821 299.079 309.214C299.189 305.996 298.841 302.079 297.927 298.022C296.114 289.98 291.98 280.988 284.275 275.988C271.789 267.885 253.971 270.844 244.557 282.624ZM255.44 312.065C246.774 306.441 245.038 295.254 251.521 287.143C258.004 279.032 270.329 276.969 278.996 282.593C284.482 286.153 287.624 292.893 289.163 299.423C289.923 302.646 290.268 305.721 290.332 308.159C290.365 309.379 290.326 310.416 290.24 311.218C290.198 311.609 290.146 311.927 290.092 312.173C289.851 312.297 289.533 312.442 289.135 312.601C288.319 312.929 287.239 313.291 285.945 313.651C283.359 314.368 280.013 315.048 276.38 315.42C269.019 316.175 260.928 315.626 255.44 312.065Z" fill="white"/>
<path fill-rule="evenodd" clip-rule="evenodd" d="M246.655 323.06C231.646 313.321 228.552 293.856 239.93 279.62C251.308 265.384 272.776 261.859 287.784 271.598C297.131 277.664 301.688 288.143 303.617 296.705C304.613 301.124 305.01 305.453 304.884 309.12C304.821 310.947 304.624 312.748 304.243 314.389L298.556 313.526L304.243 314.389C303.905 315.849 303.257 317.937 301.795 319.766C300.332 321.596 298.34 322.811 296.91 323.564L294.2 318.977L296.91 323.564C295.304 324.409 293.472 325.148 291.568 325.781C287.748 327.051 283.066 328.084 278.1 328.634L277.68 323.345L278.1 328.634C268.476 329.699 256.001 329.126 246.655 323.06ZM256.163 290.154C251.653 295.797 252.816 303.678 258.959 307.664C262.766 310.135 269.115 310.828 276.01 310.122C279.274 309.787 282.261 309.177 284.504 308.554C284.506 308.553 284.509 308.553 284.512 308.552C284.511 308.549 284.511 308.546 284.511 308.543C284.456 306.428 284.151 303.682 283.468 300.786C282.027 294.668 279.285 289.463 275.48 286.994C269.336 283.008 260.673 284.511 256.163 290.154Z" fill="white"/>
<path fill-rule="evenodd" clip-rule="evenodd" d="M228.941 322.773C200.104 308.032 190.676 273.975 208.013 246.818C225.35 219.662 262.923 209.631 291.76 224.371C309.556 233.468 320.658 251.847 326.536 268.677C329.5 277.166 331.214 285.475 331.769 292.381C332.047 295.831 332.041 299.006 331.728 301.722C331.426 304.337 330.798 306.93 329.52 308.93C328.243 310.931 326.066 312.732 323.703 314.293C321.247 315.914 318.194 317.531 314.732 319.069C314.288 319.267 313.836 319.463 313.376 319.659L313.26 299.081C313.262 298.897 313.263 298.705 313.261 298.505C313.249 296.772 313.077 294.544 312.707 291.941C311.969 286.739 310.468 280.232 308.041 273.493C303.124 259.843 294.709 246.076 282.039 239.599C262.024 229.368 236.035 236.341 224.097 255.04C212.16 273.74 218.647 297.314 238.662 307.545C251.335 314.023 268.864 313.518 284.502 310.375C291.235 309.021 297.44 307.214 302.487 305.398L302.618 323.595C298.439 324.907 293.942 326.094 289.255 327.075C270.068 331.092 246.737 331.869 228.941 322.773Z" fill="white"/>
<path fill-rule="evenodd" clip-rule="evenodd" d="M66.0918 45.8704C56.6773 57.6497 59.2104 73.8143 71.6965 81.9167C79.4018 86.9168 90.1769 87.5997 99.217 86.5995C103.776 86.0951 108.01 85.151 111.362 84.0367C113.036 83.4801 114.527 82.8691 115.742 82.2293C116.912 81.6136 118.009 80.8782 118.703 80.0103C119.396 79.1425 119.823 77.9719 120.1 76.7769C120.388 75.5353 120.559 74.068 120.614 72.4607C120.724 69.2433 120.376 65.3256 119.462 61.2693C117.649 53.2266 113.515 44.2347 105.81 39.2346C93.3237 31.1322 75.5064 34.091 66.0918 45.8704ZM76.9755 75.3116C68.3093 69.688 66.5734 58.5005 73.0561 50.3895C79.5387 42.2785 91.8646 40.216 100.531 45.8396C106.017 49.3995 109.159 56.1395 110.698 62.6694C111.458 65.8929 111.803 68.9679 111.868 71.4056C111.9 72.6253 111.861 73.663 111.775 74.4647C111.733 74.8558 111.681 75.1739 111.627 75.4195C111.386 75.5438 111.068 75.6885 110.67 75.8482C109.854 76.1759 108.774 76.5381 107.48 76.8974C104.895 77.6153 101.549 78.2948 97.9148 78.6672C90.5539 79.4217 82.4628 78.8724 76.9755 75.3116Z" fill="white"/>
<path fill-rule="evenodd" clip-rule="evenodd" d="M68.1878 86.3073C53.1796 76.5679 50.0856 57.1029 61.4634 42.8669C72.8411 28.6309 94.3095 25.1054 109.318 34.8448C118.664 40.9104 123.221 51.3896 125.151 59.9521C126.147 64.371 126.543 68.6996 126.417 72.3665C126.354 74.1943 126.157 75.9947 125.777 77.6354L120.089 76.7726L125.777 77.6354C125.438 79.0957 124.79 81.1835 123.328 83.0132C121.865 84.843 119.873 86.0581 118.444 86.8106L115.733 82.2234L118.444 86.8106C116.837 87.656 115.005 88.3949 113.101 89.0279C109.281 90.2977 104.6 91.3311 99.6327 91.8806L99.213 86.5923L99.6327 91.8806C90.0088 92.9454 77.5347 92.3728 68.1878 86.3073ZM77.6962 53.401C73.1863 59.0439 74.3497 66.9246 80.4927 70.9111C84.2994 73.3814 90.6477 74.0752 97.543 73.3685C100.807 73.0339 103.795 72.4235 106.037 71.8009C106.039 71.8002 106.042 71.7995 106.045 71.7987C106.045 71.7957 106.045 71.7926 106.044 71.7895C105.989 69.6753 105.684 66.9284 105.002 64.0324C103.56 57.915 100.818 52.7102 97.0127 50.2409C90.8697 46.2544 82.2062 47.7581 77.6962 53.401Z" fill="white"/>
<path fill-rule="evenodd" clip-rule="evenodd" d="M50.4742 86.0191C21.637 71.2782 12.2095 37.2215 29.5461 10.0648C46.8828 -17.0918 84.4558 -27.1229 113.293 -12.3819C131.089 -3.2851 142.191 15.0938 148.069 31.924C151.034 40.4122 152.747 48.7216 153.303 55.6279C153.58 59.078 153.574 62.2527 153.261 64.969C152.959 67.5832 152.331 70.1761 151.054 72.1768C149.776 74.1776 147.599 75.9788 145.236 77.5391C142.78 79.1604 139.727 80.7772 136.265 82.3158C135.821 82.5132 135.369 82.7098 134.909 82.9056L134.793 62.3273C134.795 62.144 134.796 61.9521 134.795 61.7514C134.782 60.0184 134.61 57.7902 134.24 55.1874C133.502 49.9855 132.002 43.4784 129.574 36.7398C124.657 23.0893 116.242 9.32215 103.572 2.84552C83.5568 -7.38575 57.5681 -0.412851 45.6304 18.2866C33.6927 36.9861 40.1804 60.5602 60.1954 70.7915C72.8685 77.2697 90.3972 76.7643 106.035 73.6213C112.768 72.268 118.973 70.4604 124.02 68.645L124.151 86.8418C119.972 88.154 115.475 89.3401 110.788 90.3214C91.6015 94.339 68.27 95.116 50.4742 86.0191Z" fill="white"/>
<path fill-rule="evenodd" clip-rule="evenodd" d="M312.871 173.642C303.457 185.421 305.99 201.586 318.476 209.688C326.181 214.688 336.956 215.371 345.996 214.371C350.556 213.866 354.79 212.922 358.141 211.808C359.816 211.251 361.306 210.64 362.521 210.001C363.691 209.385 364.788 208.649 365.482 207.782C366.176 206.914 366.602 205.743 366.879 204.548C367.167 203.307 367.338 201.839 367.393 200.232C367.504 197.015 367.155 193.097 366.241 189.041C364.429 180.998 360.294 172.006 352.589 167.006C340.103 158.903 322.286 161.862 312.871 173.642ZM323.755 203.083C315.089 197.459 313.353 186.272 319.835 178.161C326.318 170.05 338.644 167.987 347.31 173.611C352.796 177.171 355.938 183.911 357.477 190.441C358.237 193.664 358.583 196.739 358.647 199.177C358.679 200.397 358.64 201.434 358.554 202.236C358.512 202.627 358.461 202.945 358.406 203.191C358.165 203.315 357.847 203.46 357.449 203.619C356.633 203.947 355.553 204.309 354.26 204.669C351.674 205.387 348.328 206.066 344.694 206.438C337.333 207.193 329.242 206.644 323.755 203.083Z" fill="white"/>
<path fill-rule="evenodd" clip-rule="evenodd" d="M314.969 214.079C299.961 204.339 296.867 184.874 308.245 170.638C319.622 156.402 341.091 152.877 356.099 162.616C365.446 168.682 370.002 179.161 371.932 187.723C372.928 192.142 373.324 196.471 373.198 200.138C373.135 201.966 372.939 203.766 372.558 205.407L366.87 204.544L372.558 205.407C372.219 206.867 371.571 208.955 370.109 210.784C368.647 212.614 366.655 213.829 365.225 214.582L362.514 209.995L365.225 214.582C363.619 215.427 361.786 216.166 359.882 216.799C356.062 218.069 351.381 219.102 346.414 219.652L345.994 214.364L346.414 219.652C336.79 220.717 324.316 220.144 314.969 214.079ZM324.477 181.172C319.968 186.815 321.131 194.696 327.274 198.682C331.081 201.153 337.429 201.846 344.324 201.14C347.589 200.805 350.576 200.195 352.818 199.572C352.821 199.571 352.823 199.571 352.826 199.57C352.826 199.567 352.826 199.564 352.826 199.561C352.77 197.447 352.465 194.7 351.783 191.804C350.341 185.686 347.599 180.481 343.794 178.012C337.651 174.026 328.987 175.529 324.477 181.172Z" fill="white"/>
<path fill-rule="evenodd" clip-rule="evenodd" d="M297.255 213.791C268.418 199.05 258.991 164.993 276.327 137.836C293.664 110.68 331.237 100.649 360.074 115.39C377.87 124.486 388.973 142.865 394.85 159.695C397.815 168.184 399.529 176.493 400.084 183.399C400.361 186.85 400.355 190.024 400.042 192.74C399.74 195.355 399.112 197.948 397.835 199.948C396.558 201.949 394.381 203.75 392.017 205.311C389.562 206.932 386.508 208.549 383.046 210.087C382.602 210.285 382.15 210.481 381.69 210.677L381.574 190.099C381.577 189.915 381.577 189.724 381.576 189.523C381.563 187.79 381.391 185.562 381.022 182.959C380.283 177.757 378.783 171.25 376.355 164.511C371.438 150.861 363.023 137.094 350.353 130.617C330.338 120.386 304.349 127.359 292.412 146.058C280.474 164.758 286.962 188.332 306.977 198.563C319.65 205.041 337.178 204.536 352.816 201.393C359.549 200.039 365.754 198.232 370.801 196.417L370.932 214.613C366.753 215.926 362.256 217.112 357.57 218.093C338.383 222.11 315.051 222.887 297.255 213.791Z" fill="white"/>
<path fill-rule="evenodd" clip-rule="evenodd" d="M118.789 -22.963C89.9514 -37.704 80.5239 -71.7607 97.8606 -98.9173C115.197 -126.074 152.77 -136.105 181.607 -121.364C199.403 -112.267 210.506 -93.8884 216.384 -77.0582C219.348 -68.57 221.062 -60.2606 221.617 -53.3542C221.894 -49.9041 221.889 -46.7295 221.575 -44.0132C221.274 -41.399 220.645 -38.8061 219.368 -36.8053C218.091 -34.8046 215.914 -33.0033 213.55 -31.443C211.095 -29.8218 208.042 -28.205 204.58 -26.6664C204.135 -26.469 203.683 -26.2723 203.224 -26.0766L203.107 -46.6549C203.11 -46.8382 203.111 -47.0301 203.109 -47.2307C203.097 -48.9638 202.925 -51.192 202.555 -53.7948C201.816 -58.9967 200.316 -65.5037 197.889 -72.2424C192.972 -85.8929 184.556 -99.66 171.886 -106.137C151.871 -116.368 125.883 -109.395 113.945 -90.6955C102.007 -71.996 108.495 -48.4219 128.51 -38.1907C141.183 -31.7125 158.712 -32.2179 174.349 -35.3609C181.083 -36.7142 187.288 -38.5217 192.335 -40.3371L192.466 -22.1404C188.286 -20.8282 183.789 -19.6421 179.103 -18.6608C159.916 -14.6432 136.584 -13.8662 118.789 -22.963Z" fill="white"/>
<path fill-rule="evenodd" clip-rule="evenodd" d="M365.57 104.808C336.733 90.0675 327.305 56.0108 344.642 28.8542C361.979 1.69754 399.552 -8.33356 428.389 6.40739C446.185 15.5042 457.287 33.8831 463.165 50.7133C466.129 59.2015 467.843 67.5109 468.398 74.4173C468.676 77.8674 468.67 81.042 468.356 83.7583C468.055 86.3725 467.427 88.9654 466.149 90.9661C464.872 92.9669 462.695 94.7681 460.332 96.3284C457.876 97.9497 454.823 99.5665 451.361 101.105C450.917 101.302 450.465 101.499 450.005 101.695L449.888 81.1166C449.891 80.9333 449.892 80.7414 449.89 80.5407C449.878 78.8077 449.706 76.5795 449.336 73.9767C448.598 68.7748 447.097 62.2678 444.67 55.5291C439.753 41.8786 431.338 28.1115 418.668 21.6348C398.653 11.4036 372.664 18.3765 360.726 37.0759C348.788 55.7754 355.276 79.3495 375.291 89.5808C387.964 96.059 405.493 95.5536 421.131 92.4106C427.864 91.0573 434.069 89.2497 439.116 87.4343L439.247 105.631C435.068 106.943 430.571 108.129 425.884 109.111C406.697 113.128 383.366 113.905 365.57 104.808Z" fill="white"/>
<path fill-rule="evenodd" clip-rule="evenodd" d="M-50.8765 543.896C-22.0393 558.637 15.5337 548.605 32.8704 521.449C50.207 494.292 40.7795 460.236 11.9423 445.495C-5.85345 436.398 -29.185 437.175 -48.372 441.192C-58.0488 443.219 -66.9183 446.118 -73.8487 449.198C-77.3107 450.737 -80.3639 452.353 -82.8195 453.975C-85.1829 455.535 -87.3599 457.336 -88.6371 459.337C-89.9144 461.338 -90.5426 463.931 -90.8443 466.545C-91.1577 469.261 -91.1634 472.436 -90.8861 475.886C-90.8505 476.328 -90.8102 476.777 -90.765 477.231L-70.8963 466.868C-70.7213 466.773 -70.5368 466.675 -70.343 466.574C-68.6682 465.704 -66.4359 464.705 -63.7426 463.667C-58.3598 461.595 -51.3339 459.446 -43.614 457.895C-27.9759 454.751 -10.4488 454.245 2.2212 460.722C22.2363 470.953 28.7239 494.527 16.7862 513.227C4.84853 531.926 -21.1402 538.899 -41.1552 528.668C-53.8284 522.19 -62.2449 508.422 -67.162 494.771C-69.2791 488.894 -70.6907 483.193 -71.5065 478.381L-89.0901 487.522C-88.2307 491.41 -87.0883 495.479 -85.6527 499.59C-79.7748 516.42 -68.6723 534.799 -50.8765 543.896Z" fill="white"/>
<path fill-rule="evenodd" clip-rule="evenodd" d="M195.905 671.667C224.742 686.408 262.315 676.377 279.652 649.22C296.988 622.064 287.561 588.007 258.724 573.266C240.928 564.169 217.596 564.946 198.409 568.964C188.732 570.99 179.863 573.889 172.933 576.969C169.471 578.508 166.417 580.125 163.962 581.746C161.598 583.306 159.421 585.108 158.144 587.108C156.867 589.109 156.239 591.702 155.937 594.316C155.624 597.032 155.618 600.207 155.895 603.657C155.931 604.1 155.971 604.548 156.016 605.002L175.885 594.64C176.06 594.545 176.244 594.447 176.438 594.346C178.113 593.475 180.345 592.476 183.039 591.439C188.421 589.366 195.447 587.218 203.167 585.666C218.805 582.523 236.332 582.017 249.002 588.493C269.018 598.725 275.505 622.299 263.567 640.998C251.63 659.698 225.641 666.671 205.626 656.439C192.953 649.961 184.536 636.193 179.619 622.543C177.502 616.666 176.091 610.965 175.275 606.152L157.691 615.294C158.551 619.182 159.693 623.25 161.129 627.361C167.006 644.191 178.109 662.57 195.905 671.667Z" fill="white"/>
<path fill-rule="evenodd" clip-rule="evenodd" d="M48.4312 402.461C41.8478 415.738 25.0071 422.044 10.8992 416.555C2.19314 413.168 -3.90791 405.209 -7.51207 397.727C-9.32981 393.954 -10.56 390.207 -11.1806 387.053C-11.4906 385.478 -11.6552 384.016 -11.6535 382.752C-11.6518 381.536 -11.498 380.314 -11.013 379.336C-10.528 378.358 -9.61652 377.431 -8.60621 376.606C-7.55646 375.75 -6.23022 374.869 -4.71083 374.005C-1.66935 372.276 2.27808 370.543 6.64475 369.175C15.3029 366.464 26.0477 365.058 34.7538 368.445C48.8616 373.933 55.0146 389.183 48.4312 402.461ZM14.5908 409.11C24.3826 412.919 36.0293 408.542 40.5625 399.4C45.0956 390.257 40.8542 379.699 31.0624 375.89C24.8639 373.479 16.7881 374.499 9.72447 376.649C6.23747 377.71 3.10269 379.014 0.723543 380.21C-0.466858 380.808 -1.44617 381.369 -2.1745 381.844C-2.52976 382.077 -2.81003 382.279 -3.01901 382.446C-3.01686 382.695 -2.99541 383.015 -2.94818 383.403C-2.85127 384.2 -2.65456 385.218 -2.34674 386.399C-1.73153 388.759 -0.695261 391.687 0.781978 394.679C3.77439 400.74 8.39079 406.698 14.5908 409.11Z" fill="white"/>
<path fill-rule="evenodd" clip-rule="evenodd" d="M8.44599 421.502C25.4032 428.099 45.7036 420.541 53.6597 404.495C61.6158 388.45 54.164 370.095 37.2068 363.498C26.646 359.39 14.2566 361.23 5.03935 364.117C0.282444 365.606 -4.08456 367.512 -7.55072 369.482C-9.27851 370.464 -10.9122 371.536 -12.2992 372.668L-8.59553 376.612L-12.2993 372.668C-13.5338 373.675 -15.2164 375.241 -16.239 377.303C-17.2616 379.365 -17.4249 381.522 -17.427 383.009L-11.6418 382.756L-17.427 383.009C-17.4293 384.679 -17.2148 386.47 -16.8623 388.261C-16.1551 391.855 -14.7847 395.993 -12.8045 400.103L-7.50186 397.726L-12.8045 400.104C-8.96767 408.068 -2.11478 417.394 8.44599 421.502ZM35.3188 397.36C32.1651 403.72 23.9913 406.849 17.0504 404.149C12.7494 402.476 8.8744 397.935 6.07134 392.258C4.74433 389.57 3.82282 386.955 3.28936 384.908C3.28874 384.905 3.28812 384.903 3.2875 384.9C3.2905 384.899 3.29349 384.897 3.2965 384.896C5.35985 383.859 8.1579 382.69 11.2904 381.737C17.9076 379.724 24.3031 379.179 28.6024 380.852C35.5432 383.552 38.4724 391 35.3188 397.36Z" fill="white"/>
<path fill-rule="evenodd" clip-rule="evenodd" d="M17.4379 434.913C46.2751 449.654 83.8481 439.623 101.185 412.466C118.521 385.31 109.094 351.253 80.2568 336.512C62.461 327.415 39.1295 328.192 19.9425 332.21C10.2656 334.236 1.39615 337.136 -5.5342 340.216C-8.99629 341.754 -12.0495 343.371 -14.5051 344.992C-16.8684 346.552 -19.0454 348.354 -20.3227 350.354C-21.5999 352.355 -22.2282 354.948 -22.5298 357.562C-22.8433 360.279 -22.8489 363.453 -22.5716 366.903C-22.536 367.346 -22.4957 367.794 -22.4506 368.248L-2.58186 357.886C-2.4068 357.791 -2.22238 357.693 -2.02852 357.592C-0.35378 356.721 1.87854 355.722 4.57181 354.685C9.95461 352.612 16.9806 350.464 24.7004 348.912C40.3386 345.769 57.8656 345.263 70.5357 351.74C90.5507 361.971 97.0384 385.545 85.1007 404.244C73.163 422.944 47.1743 429.917 27.1592 419.686C14.4861 413.207 6.06954 399.439 1.1525 385.789C-0.964622 379.912 -2.3762 374.211 -3.19202 369.398L-20.7757 378.54C-19.9162 382.428 -18.7739 386.497 -17.3382 390.607C-11.4604 407.438 -0.357848 425.816 17.4379 434.913Z" fill="white"/>
<path fill-rule="evenodd" clip-rule="evenodd" d="M295.212 530.232C288.629 543.509 271.788 549.815 257.68 544.326C248.974 540.939 242.873 532.98 239.269 525.498C237.451 521.725 236.221 517.978 235.601 514.824C235.291 513.249 235.126 511.787 235.128 510.523C235.129 509.307 235.283 508.085 235.768 507.107C236.253 506.129 237.165 505.202 238.175 504.377C239.225 503.521 240.551 502.64 242.07 501.776C245.112 500.047 249.059 498.314 253.426 496.946C262.084 494.235 272.829 492.829 281.535 496.216C295.643 501.704 301.796 516.954 295.212 530.232ZM261.372 536.881C271.164 540.69 282.811 536.313 287.344 527.171C291.877 518.028 287.635 507.47 277.844 503.661C271.645 501.25 263.569 502.27 256.506 504.42C253.019 505.481 249.884 506.785 247.505 507.981C246.314 508.579 245.335 509.14 244.607 509.615C244.251 509.848 243.971 510.05 243.762 510.217C243.764 510.466 243.786 510.786 243.833 511.174C243.93 511.971 244.127 512.989 244.435 514.17C245.05 516.53 246.086 519.458 247.563 522.45C250.556 528.511 255.172 534.469 261.372 536.881Z" fill="white"/>
<path fill-rule="evenodd" clip-rule="evenodd" d="M255.227 549.273C272.184 555.87 292.485 548.312 300.441 532.266C308.397 516.221 300.945 497.866 283.988 491.269C273.427 487.161 261.038 489.001 251.821 491.888C247.064 493.377 242.697 495.283 239.231 497.253C237.503 498.235 235.869 499.307 234.482 500.439L238.186 504.383L234.482 500.439C233.247 501.446 231.565 503.012 230.542 505.074C229.52 507.136 229.356 509.293 229.354 510.78L235.139 510.527L229.354 510.78C229.352 512.45 229.566 514.241 229.919 516.032C230.626 519.626 231.997 523.764 233.977 527.874L239.279 525.497L233.977 527.874C237.814 535.839 244.666 545.165 255.227 549.273ZM282.1 525.131C278.946 531.491 270.773 534.62 263.832 531.92C259.531 530.247 255.656 525.706 252.853 520.029C251.526 517.341 250.604 514.726 250.071 512.679C250.07 512.676 250.069 512.674 250.069 512.671C250.072 512.67 250.075 512.668 250.078 512.667C252.141 511.63 254.939 510.461 258.072 509.508C264.689 507.495 271.084 506.95 275.384 508.623C282.324 511.323 285.254 518.771 282.1 525.131Z" fill="white"/>
<path fill-rule="evenodd" clip-rule="evenodd" d="M264.219 562.685C293.056 577.426 330.629 567.395 347.966 540.238C365.303 513.081 355.875 479.025 327.038 464.284C309.242 455.187 285.911 455.964 266.724 459.981C257.047 462.008 248.177 464.907 241.247 467.987C237.785 469.526 234.732 471.142 232.276 472.764C229.913 474.324 227.736 476.125 226.459 478.126C225.181 480.127 224.553 482.72 224.251 485.334C223.938 488.05 223.932 491.225 224.21 494.675C224.245 495.117 224.286 495.566 224.331 496.02L244.199 485.657C244.374 485.562 244.559 485.464 244.753 485.363C246.427 484.493 248.66 483.494 251.353 482.457C256.736 480.384 263.762 478.235 271.482 476.684C287.12 473.54 304.647 473.034 317.317 479.511C337.332 489.742 343.82 513.316 331.882 532.016C319.944 550.715 293.956 557.688 273.94 547.457C261.267 540.979 252.851 527.211 247.934 513.561C245.817 507.683 244.405 501.982 243.589 497.17L226.006 506.311C226.865 510.199 228.007 514.268 229.443 518.379C235.321 535.209 246.423 553.588 264.219 562.685Z" fill="white"/>
<path fill-rule="evenodd" clip-rule="evenodd" d="M116.746 293.479C110.162 306.756 93.3215 313.062 79.2137 307.573C70.5076 304.187 64.4065 296.227 60.8024 288.745C58.9846 284.972 57.7545 281.225 57.1339 278.071C56.8239 276.496 56.6592 275.034 56.661 273.77C56.6626 272.554 56.8164 271.332 57.3014 270.354C57.7865 269.376 58.6979 268.449 59.7082 267.624C60.758 266.768 62.0842 265.887 63.6036 265.023C66.6451 263.294 70.5925 261.561 74.9592 260.194C83.6173 257.482 94.3622 256.076 103.068 259.463C117.176 264.951 123.329 280.201 116.746 293.479ZM82.9052 300.128C92.697 303.938 104.344 299.56 108.877 290.418C113.41 281.275 109.169 270.717 99.3768 266.908C93.1784 264.497 85.1025 265.517 78.0389 267.667C74.5519 268.728 71.4171 270.032 69.038 271.228C67.8476 271.826 66.8683 272.387 66.14 272.863C65.7847 273.095 65.5044 273.297 65.2954 273.464C65.2976 273.714 65.319 274.033 65.3663 274.421C65.4632 275.218 65.6599 276.236 65.9677 277.417C66.5829 279.777 67.6192 282.705 69.0964 285.697C72.0888 291.758 76.7052 297.716 82.9052 300.128Z" fill="white"/>
<path fill-rule="evenodd" clip-rule="evenodd" d="M76.7604 312.52C93.7176 319.117 114.018 311.559 121.974 295.513C129.93 279.467 122.478 261.113 105.521 254.516C94.9605 250.408 82.5711 252.248 73.3538 255.134C68.5969 256.624 64.2299 258.53 60.7637 260.5C59.0359 261.482 57.4023 262.554 56.0152 263.685L59.7189 267.63L56.0152 263.686C54.7806 264.693 53.0981 266.259 52.0755 268.321C51.0529 270.383 50.8896 272.54 50.8875 274.027L56.6727 273.774L50.8875 274.027C50.8852 275.697 51.0996 277.488 51.4522 279.279C52.1594 282.873 53.5297 287.011 55.5099 291.121L60.8126 288.743L55.5099 291.121C59.3468 299.086 66.1997 308.412 76.7604 312.52ZM103.633 288.378C100.48 294.738 92.3057 297.867 85.3649 295.167C81.0638 293.494 77.1888 288.953 74.3858 283.275C73.0588 280.588 72.1373 277.972 71.6038 275.925C71.6032 275.923 71.6026 275.921 71.602 275.918C71.605 275.917 71.6079 275.915 71.6109 275.914C73.6743 274.877 76.4724 273.708 79.6049 272.755C86.2221 270.742 92.6175 270.197 96.9168 271.869C103.858 274.569 106.787 282.018 103.633 288.378Z" fill="white"/>
<path fill-rule="evenodd" clip-rule="evenodd" d="M85.7524 325.931C114.59 340.672 152.163 330.641 169.499 303.485C186.836 276.328 177.408 242.271 148.571 227.53C130.775 218.433 107.444 219.21 88.2569 223.228C78.5801 225.254 69.7106 228.154 62.7803 231.234C59.3182 232.772 56.265 234.389 53.8094 236.01C51.446 237.571 49.269 239.372 47.9918 241.373C46.7145 243.373 46.0863 245.966 45.7846 248.58C45.4712 251.297 45.4655 254.471 45.7428 257.921C45.7784 258.364 45.8187 258.812 45.8639 259.266L65.7326 248.904C65.9077 248.809 66.0921 248.711 66.2859 248.61C67.9607 247.739 70.193 246.74 72.8863 245.703C78.2691 243.63 85.295 241.482 93.0149 239.93C108.653 236.787 126.18 236.281 138.85 242.758C158.865 252.989 165.353 276.563 153.415 295.263C141.477 313.962 115.489 320.935 95.4737 310.704C82.8006 304.225 74.384 290.457 69.467 276.807C67.3498 270.93 65.9383 265.229 65.1224 260.417L47.5388 269.558C48.3982 273.446 49.5406 277.515 50.9762 281.625C56.8541 298.456 67.9566 316.834 85.7524 325.931Z" fill="white"/>
<path fill-rule="evenodd" clip-rule="evenodd" d="M363.527 421.25C356.944 434.527 340.103 440.833 325.995 435.344C317.289 431.958 311.188 423.998 307.584 416.516C305.766 412.743 304.536 408.996 303.915 405.842C303.605 404.267 303.44 402.805 303.442 401.541C303.444 400.325 303.598 399.103 304.083 398.125C304.568 397.147 305.479 396.22 306.489 395.395C307.539 394.539 308.865 393.658 310.385 392.794C313.426 391.065 317.374 389.332 321.74 387.965C330.399 385.253 341.143 383.847 349.85 387.234C363.957 392.722 370.11 407.972 363.527 421.25ZM329.686 427.899C339.478 431.708 351.125 427.331 355.658 418.189C360.191 409.046 355.95 398.488 346.158 394.679C339.96 392.268 331.884 393.288 324.82 395.438C321.333 396.499 318.198 397.803 315.819 398.999C314.629 399.597 313.65 400.158 312.921 400.634C312.566 400.866 312.286 401.068 312.077 401.235C312.079 401.485 312.1 401.804 312.148 402.192C312.244 402.989 312.441 404.007 312.749 405.188C313.364 407.548 314.4 410.476 315.878 413.468C318.87 419.529 323.486 425.487 329.686 427.899Z" fill="white"/>
<path fill-rule="evenodd" clip-rule="evenodd" d="M323.542 440.291C340.499 446.888 360.799 439.33 368.755 423.284C376.711 407.239 369.26 388.884 352.302 382.288C341.742 378.179 329.352 380.019 320.135 382.906C315.378 384.395 311.011 386.301 307.545 388.271C305.817 389.253 304.184 390.325 302.796 391.457L306.5 395.401L302.796 391.457C301.562 392.464 299.879 394.03 298.857 396.092C297.834 398.155 297.671 400.311 297.669 401.798L303.454 401.545L297.669 401.798C297.666 403.469 297.881 405.259 298.233 407.051C298.941 410.644 300.311 414.782 302.291 418.893L307.594 416.515L302.291 418.893C306.128 426.857 312.981 436.183 323.542 440.291ZM350.414 416.149C347.261 422.509 339.087 425.638 332.146 422.938C327.845 421.265 323.97 416.724 321.167 411.047C319.84 408.359 318.919 405.744 318.385 403.697C318.384 403.694 318.384 403.692 318.383 403.689C318.386 403.688 318.389 403.686 318.392 403.685C320.456 402.648 323.254 401.479 326.386 400.526C333.003 398.513 339.399 397.968 343.698 399.641C350.639 402.341 353.568 409.789 350.414 416.149Z" fill="white"/>
<path fill-rule="evenodd" clip-rule="evenodd" d="M332.534 453.703C361.371 468.444 398.944 458.413 416.281 431.256C433.617 404.099 424.19 370.043 395.352 355.302C377.557 346.205 354.225 346.982 335.038 350.999C325.361 353.026 316.492 355.925 309.562 359.005C306.099 360.544 303.046 362.16 300.591 363.782C298.227 365.342 296.05 367.143 294.773 369.144C293.496 371.145 292.868 373.738 292.566 376.352C292.252 379.068 292.247 382.243 292.524 385.693C292.56 386.136 292.6 386.584 292.645 387.038L312.514 376.675C312.689 376.58 312.873 376.482 313.067 376.381C314.742 375.511 316.974 374.512 319.668 373.475C325.05 371.402 332.076 369.253 339.796 367.702C355.434 364.559 372.961 364.053 385.631 370.529C405.646 380.76 412.134 404.335 400.196 423.034C388.259 441.733 362.27 448.706 342.255 438.475C329.582 431.997 321.165 418.229 316.248 404.579C314.131 398.701 312.72 393 311.904 388.188L294.32 397.329C295.179 401.217 296.322 405.286 297.757 409.397C303.635 426.227 314.738 444.606 332.534 453.703Z" fill="white"/>
<path fill-rule="evenodd" clip-rule="evenodd" d="M185.06 184.497C178.477 197.774 161.636 204.079 147.528 198.591C138.822 195.204 132.721 187.245 129.117 179.763C127.299 175.99 126.069 172.243 125.448 169.089C125.138 167.514 124.974 166.052 124.975 164.788C124.977 163.571 125.131 162.35 125.616 161.372C126.101 160.393 127.012 159.467 128.023 158.642C129.072 157.786 130.399 156.904 131.918 156.041C134.96 154.312 138.907 152.579 143.274 151.211C151.932 148.5 162.677 147.094 171.383 150.481C185.491 155.969 191.643 171.219 185.06 184.497ZM151.22 191.146C161.011 194.955 172.658 190.578 177.191 181.436C181.725 172.293 177.483 161.735 167.691 157.926C161.493 155.514 153.417 156.535 146.353 158.684C142.866 159.745 139.732 161.05 137.352 162.246C136.162 162.844 135.183 163.404 134.454 163.88C134.099 164.112 133.819 164.315 133.61 164.482C133.612 164.731 133.633 165.051 133.681 165.439C133.778 166.236 133.974 167.253 134.282 168.435C134.897 170.795 135.934 173.722 137.411 176.715C140.403 182.776 145.02 188.734 151.22 191.146Z" fill="white"/>
<path fill-rule="evenodd" clip-rule="evenodd" d="M145.075 203.538C162.032 210.135 182.333 202.576 190.289 186.531C198.245 170.485 190.793 152.131 173.836 145.534C163.275 141.426 150.886 143.266 141.668 146.152C136.911 147.642 132.544 149.548 129.078 151.518C127.35 152.5 125.717 153.572 124.33 154.703L128.033 158.648L124.33 154.703C123.095 155.711 121.413 157.276 120.39 159.339C119.367 161.401 119.204 163.558 119.202 165.045L124.987 164.792L119.202 165.045C119.2 166.715 119.414 168.506 119.767 170.297C120.474 173.891 121.844 178.029 123.824 182.139L129.127 179.761L123.824 182.139C127.661 190.104 134.514 199.43 145.075 203.538ZM171.948 179.396C168.794 185.756 160.62 188.885 153.679 186.185C149.378 184.512 145.503 179.971 142.7 174.293C141.373 171.605 140.452 168.99 139.918 166.943C139.918 166.941 139.917 166.938 139.916 166.936C139.919 166.935 139.922 166.933 139.925 166.932C141.989 165.894 144.787 164.726 147.919 163.773C154.537 161.759 160.932 161.215 165.231 162.887C172.172 165.587 175.101 173.036 171.948 179.396Z" fill="white"/>
<path fill-rule="evenodd" clip-rule="evenodd" d="M154.067 216.949C182.904 231.69 220.477 221.659 237.814 194.503C255.15 167.346 245.723 133.289 216.886 118.548C199.09 109.451 175.758 110.228 156.571 114.246C146.895 116.272 138.025 119.172 131.095 122.252C127.633 123.79 124.579 125.407 122.124 127.028C119.76 128.589 117.583 130.39 116.306 132.391C115.029 134.391 114.401 136.984 114.099 139.598C113.786 142.315 113.78 145.489 114.057 148.939C114.093 149.382 114.133 149.831 114.178 150.284L134.047 139.922C134.222 139.827 134.407 139.729 134.6 139.628C136.275 138.757 138.507 137.758 141.201 136.721C146.584 134.648 153.609 132.5 161.329 130.948C176.967 127.805 194.495 127.299 207.165 133.776C227.18 144.007 233.667 167.581 221.73 186.281C209.792 204.98 183.803 211.953 163.788 201.722C151.115 195.243 142.698 181.475 137.781 167.825C135.664 161.948 134.253 156.247 133.437 151.435L115.853 160.576C116.713 164.464 117.855 168.533 119.291 172.643C125.169 189.474 136.271 207.853 154.067 216.949Z" fill="white"/>
<path fill-rule="evenodd" clip-rule="evenodd" d="M400.846 344.72C429.683 359.461 467.256 349.43 484.593 322.274C501.93 295.117 492.502 261.06 463.665 246.319C445.869 237.222 422.538 237.999 403.351 242.017C393.674 244.043 384.804 246.943 377.874 250.023C374.412 251.561 371.359 253.178 368.903 254.799C366.54 256.36 364.363 258.161 363.086 260.162C361.808 262.162 361.18 264.755 360.878 267.369C360.565 270.086 360.559 273.26 360.837 276.71C360.872 277.153 360.912 277.601 360.958 278.055L380.826 267.693C381.001 267.598 381.186 267.5 381.38 267.399C383.054 266.528 385.287 265.529 387.98 264.492C393.363 262.419 400.389 260.271 408.109 258.719C423.747 255.576 441.274 255.07 453.944 261.547C473.959 271.778 480.447 295.352 468.509 314.052C456.571 332.751 430.582 339.724 410.567 329.493C397.894 323.014 389.478 309.246 384.561 295.596C382.444 289.719 381.032 284.018 380.216 279.206L362.633 288.347C363.492 292.235 364.634 296.304 366.07 300.414C371.948 317.245 383.05 335.624 400.846 344.72Z" fill="white"/>
<path fill-rule="evenodd" clip-rule="evenodd" d="M253.375 75.5146C246.791 88.7921 229.95 95.0973 215.843 89.609C207.137 86.2222 201.035 78.2626 197.431 70.781C195.614 67.0077 194.383 63.2604 193.763 60.1069C193.453 58.5315 193.288 57.0701 193.29 55.806C193.292 54.5893 193.445 53.3677 193.93 52.3895C194.415 51.4113 195.327 50.4844 196.337 49.6601C197.387 48.8036 198.713 47.9223 200.233 47.0586C203.274 45.3296 207.221 43.5966 211.588 42.2292C220.246 39.5179 230.991 38.1117 239.697 41.4986C253.805 46.9868 259.958 62.2371 253.375 75.5146ZM219.534 82.1639C229.326 85.9731 240.973 81.596 245.506 72.4534C250.039 63.3108 245.798 52.7529 236.006 48.9436C229.807 46.5323 221.731 47.5529 214.668 49.7022C211.181 50.7633 208.046 52.0679 205.667 53.2638C204.477 53.8621 203.497 54.4223 202.769 54.8982C202.414 55.1303 202.133 55.3325 201.924 55.4999C201.926 55.7492 201.948 56.0684 201.995 56.4569C202.092 57.2537 202.289 58.2712 202.597 59.4524C203.212 61.8131 204.248 64.7402 205.725 67.7325C208.718 73.7937 213.334 79.752 219.534 82.1639Z" fill="white"/>
<path fill-rule="evenodd" clip-rule="evenodd" d="M213.389 94.5557C230.347 101.152 250.647 93.5942 258.603 77.5486C266.559 61.5031 259.107 43.1486 242.15 36.5519C231.589 32.4436 219.2 34.2837 209.983 37.17C205.226 38.6596 200.859 40.5654 197.393 42.5357C195.665 43.5178 194.031 44.5894 192.644 45.7211L196.348 49.6657L192.644 45.7211C191.41 46.7284 189.727 48.2943 188.704 50.3566C187.682 52.4189 187.518 54.5758 187.516 56.0625L193.302 55.8093L187.516 56.0625C187.514 57.733 187.729 59.5235 188.081 61.3149C188.788 64.9088 190.159 69.0465 192.139 73.157L197.441 70.779L192.139 73.157C195.976 81.1216 202.829 90.4474 213.389 94.5557ZM240.262 70.4136C237.108 76.7738 228.935 79.9027 221.994 77.2026C217.693 75.5294 213.818 70.9888 211.015 65.3111C209.688 62.6232 208.766 60.008 208.233 57.961C208.232 57.9586 208.231 57.9563 208.231 57.9539C208.234 57.9524 208.237 57.9509 208.24 57.9494C210.303 56.9122 213.101 55.7438 216.234 54.7906C222.851 52.7772 229.246 52.2325 233.546 53.905C240.487 56.6051 243.416 64.0534 240.262 70.4136Z" fill="white"/>
<path fill-rule="evenodd" clip-rule="evenodd" d="M222.381 107.967C251.218 122.708 288.792 112.677 306.128 85.5204C323.465 58.3638 314.037 24.3071 285.2 9.56611C267.404 0.469291 244.073 1.24625 224.886 5.26384C215.209 7.29009 206.34 10.1895 199.409 13.2695C195.947 14.8081 192.894 16.4249 190.438 18.0461C188.075 19.6064 185.898 21.4077 184.621 23.4084C183.343 25.4091 182.715 28.0021 182.414 30.6163C182.1 33.3325 182.094 36.5072 182.372 39.9573C182.407 40.3999 182.448 40.8483 182.493 41.3022L202.361 30.9397C202.537 30.8446 202.721 30.7466 202.915 30.6458C204.59 29.7753 206.822 28.7762 209.515 27.739C214.898 25.6662 221.924 23.5176 229.644 21.966C245.282 18.8229 262.809 18.3169 275.479 24.7935C295.494 35.0248 301.982 58.5989 290.044 77.2984C278.106 95.9979 252.118 102.971 232.103 92.7395C219.429 86.2613 211.013 72.4932 206.096 58.843C203.979 52.9657 202.567 47.2647 201.751 42.4524L184.168 51.5938C185.027 55.4816 186.169 59.5505 187.605 63.6613C193.483 80.4915 204.586 98.8704 222.381 107.967Z" fill="white"/>
<path fill-rule="evenodd" clip-rule="evenodd" d="M290.696 -1.015C319.533 13.7259 357.106 3.69485 374.443 -23.4618C391.779 -50.6184 382.352 -84.6751 353.515 -99.4161C335.719 -108.513 312.387 -107.736 293.2 -103.718C283.523 -101.692 274.654 -98.7927 267.724 -95.7127C264.262 -94.1741 261.208 -92.5573 258.753 -90.9361C256.389 -89.3757 254.212 -87.5745 252.935 -85.5738C251.658 -83.573 251.03 -80.9801 250.728 -78.3659C250.415 -75.6496 250.409 -72.475 250.686 -69.0249C250.722 -68.5822 250.762 -68.1339 250.807 -67.68L270.676 -78.0424C270.851 -78.1376 271.035 -78.2356 271.229 -78.3364C272.904 -79.2069 275.136 -80.206 277.83 -81.2431C283.212 -83.316 290.238 -85.4645 297.958 -87.0161C313.596 -90.1592 331.123 -90.6653 343.793 -84.1886C363.809 -73.9574 370.296 -50.3833 358.358 -31.6838C346.421 -12.9843 320.432 -6.01137 300.417 -16.2426C287.744 -22.7209 279.327 -36.4889 274.41 -50.1392C272.293 -56.0165 270.882 -61.7175 270.066 -66.5298L252.482 -57.3884C253.342 -53.5006 254.484 -49.4317 255.92 -45.3209C261.797 -28.4907 272.9 -10.1118 290.696 -1.015Z" fill="white"/>
</g>
<defs>
<clipPath id="clip0_1690_373">
<path d="M0 20C0 8.95432 8.95431 0 20 0H351V583H20C8.95431 583 0 574.046 0 563V20Z" fill="white"/>
</clipPath>
</defs>
</svg>
